<mxfile host="app.diagrams.net" agent="Mozilla/5.0 (Windows NT 10.0; Win64; x64) AppleWebKit/537.36 (KHTML, like Gecko) Chrome/129.0.0.0 Safari/537.36" version="24.8.0">
  <diagram name="Page-1" id="0783ab3e-0a74-02c8-0abd-f7b4e66b4bec">
    <mxGraphModel dx="3013" dy="754" grid="1" gridSize="10" guides="1" tooltips="1" connect="1" arrows="1" fold="1" page="1" pageScale="1" pageWidth="850" pageHeight="1100" background="none" math="0" shadow="0">
      <root>
        <mxCell id="0" />
        <mxCell id="1" parent="0" />
        <mxCell id="1c1d494c118603dd-34" style="edgeStyle=none;rounded=0;html=1;labelBackgroundColor=none;startArrow=none;startFill=0;startSize=5;endArrow=classicThin;endFill=1;endSize=5;jettySize=auto;orthogonalLoop=1;strokeWidth=1;fontFamily=Verdana;fontSize=12" parent="1" source="1c1d494c118603dd-6" target="1c1d494c118603dd-10" edge="1">
          <mxGeometry relative="1" as="geometry" />
        </mxCell>
        <mxCell id="1c1d494c118603dd-6" value="Action" style="rounded=1;whiteSpace=wrap;html=1;shadow=0;comic=0;labelBackgroundColor=none;strokeWidth=1;fontFamily=Verdana;fontSize=12;align=center;arcSize=50;" parent="1" vertex="1">
          <mxGeometry x="1040" y="240" width="100" height="30" as="geometry" />
        </mxCell>
        <mxCell id="1c1d494c118603dd-7" value="Action" style="rounded=1;whiteSpace=wrap;html=1;shadow=0;comic=0;labelBackgroundColor=none;strokeWidth=1;fontFamily=Verdana;fontSize=12;align=center;arcSize=50;" parent="1" vertex="1">
          <mxGeometry x="1030" y="355" width="100" height="30" as="geometry" />
        </mxCell>
        <mxCell id="1c1d494c118603dd-35" style="edgeStyle=none;rounded=0;html=1;labelBackgroundColor=none;startArrow=none;startFill=0;startSize=5;endArrow=classicThin;endFill=1;endSize=5;jettySize=auto;orthogonalLoop=1;strokeWidth=1;fontFamily=Verdana;fontSize=12" parent="1" source="1c1d494c118603dd-10" target="1c1d494c118603dd-7" edge="1">
          <mxGeometry relative="1" as="geometry" />
        </mxCell>
        <mxCell id="1c1d494c118603dd-10" value="Object" style="rounded=0;whiteSpace=wrap;html=1;shadow=0;comic=0;labelBackgroundColor=none;strokeWidth=1;fontFamily=Verdana;fontSize=12;align=center;arcSize=50;" parent="1" vertex="1">
          <mxGeometry x="1090" y="300" width="70" height="30" as="geometry" />
        </mxCell>
        <mxCell id="1c1d494c118603dd-46" style="edgeStyle=none;rounded=0;html=1;labelBackgroundColor=none;startArrow=none;startFill=0;startSize=5;endArrow=oval;endFill=0;endSize=5;jettySize=auto;orthogonalLoop=1;strokeWidth=1;fontFamily=Verdana;fontSize=12;dashed=1;" parent="1" source="1c1d494c118603dd-21" target="1c1d494c118603dd-6" edge="1">
          <mxGeometry relative="1" as="geometry" />
        </mxCell>
        <mxCell id="1c1d494c118603dd-47" style="edgeStyle=none;rounded=0;html=1;dashed=1;labelBackgroundColor=none;startArrow=none;startFill=0;startSize=5;endArrow=oval;endFill=0;endSize=5;jettySize=auto;orthogonalLoop=1;strokeWidth=1;fontFamily=Verdana;fontSize=12" parent="1" source="1c1d494c118603dd-21" target="1c1d494c118603dd-10" edge="1">
          <mxGeometry relative="1" as="geometry" />
        </mxCell>
        <mxCell id="60571a20871a0731-3" value="" style="whiteSpace=wrap;html=1;rounded=0;shadow=0;comic=0;labelBackgroundColor=none;strokeWidth=1;fillColor=#000000;fontFamily=Verdana;fontSize=12;align=center;rotation=0;" parent="1" vertex="1">
          <mxGeometry x="1230" y="180" width="147" height="10" as="geometry" />
        </mxCell>
        <mxCell id="1c1d494c118603dd-40" style="edgeStyle=none;rounded=0;html=1;labelBackgroundColor=none;startArrow=none;startFill=0;startSize=5;endArrow=classicThin;endFill=1;endSize=5;jettySize=auto;orthogonalLoop=1;strokeWidth=1;fontFamily=Verdana;fontSize=12" parent="1" source="1c1d494c118603dd-11" target="1c1d494c118603dd-15" edge="1">
          <mxGeometry relative="1" as="geometry" />
        </mxCell>
        <mxCell id="1c1d494c118603dd-11" value="Action" style="rounded=1;whiteSpace=wrap;html=1;shadow=0;comic=0;labelBackgroundColor=none;strokeWidth=1;fontFamily=Verdana;fontSize=12;align=center;arcSize=50;" parent="1" vertex="1">
          <mxGeometry x="1264" y="470" width="100" height="30" as="geometry" />
        </mxCell>
        <mxCell id="1c1d494c118603dd-39" style="edgeStyle=none;rounded=0;html=1;labelBackgroundColor=none;startArrow=none;startFill=0;startSize=5;endArrow=classicThin;endFill=1;endSize=5;jettySize=auto;orthogonalLoop=1;strokeWidth=1;fontFamily=Verdana;fontSize=12" parent="1" source="1c1d494c118603dd-12" target="1c1d494c118603dd-11" edge="1">
          <mxGeometry relative="1" as="geometry" />
        </mxCell>
        <mxCell id="1c1d494c118603dd-12" value="" style="whiteSpace=wrap;html=1;rounded=0;shadow=0;comic=0;labelBackgroundColor=none;strokeWidth=1;fillColor=#000000;fontFamily=Verdana;fontSize=12;align=center;rotation=0;" parent="1" vertex="1">
          <mxGeometry x="1240" y="430" width="147" height="10" as="geometry" />
        </mxCell>
        <mxCell id="1c1d494c118603dd-32" style="edgeStyle=orthogonalEdgeStyle;rounded=0;html=1;entryX=0.25;entryY=0;labelBackgroundColor=none;startArrow=none;startFill=0;startSize=5;endArrow=classicThin;endFill=1;endSize=5;jettySize=auto;orthogonalLoop=1;strokeWidth=1;fontFamily=Verdana;fontSize=12" parent="1" source="1c1d494c118603dd-14" target="1c1d494c118603dd-12" edge="1">
          <mxGeometry relative="1" as="geometry" />
        </mxCell>
        <mxCell id="1c1d494c118603dd-14" value="Object" style="rounded=0;whiteSpace=wrap;html=1;shadow=0;comic=0;labelBackgroundColor=none;strokeWidth=1;fontFamily=Verdana;fontSize=12;align=center;arcSize=50;" parent="1" vertex="1">
          <mxGeometry x="1160" y="385" width="70" height="30" as="geometry" />
        </mxCell>
        <mxCell id="1c1d494c118603dd-41" style="edgeStyle=none;rounded=0;html=1;labelBackgroundColor=none;startArrow=none;startFill=0;startSize=5;endArrow=classicThin;endFill=1;endSize=5;jettySize=auto;orthogonalLoop=1;strokeWidth=1;fontFamily=Verdana;fontSize=12" parent="1" source="1c1d494c118603dd-15" target="1c1d494c118603dd-16" edge="1">
          <mxGeometry relative="1" as="geometry" />
        </mxCell>
        <mxCell id="1c1d494c118603dd-15" value="Object" style="rounded=0;whiteSpace=wrap;html=1;shadow=0;comic=0;labelBackgroundColor=none;strokeWidth=1;fontFamily=Verdana;fontSize=12;align=center;arcSize=50;" parent="1" vertex="1">
          <mxGeometry x="1325" y="530" width="70" height="30" as="geometry" />
        </mxCell>
        <mxCell id="1c1d494c118603dd-16" value="Action" style="rounded=1;whiteSpace=wrap;html=1;shadow=0;comic=0;labelBackgroundColor=none;strokeWidth=1;fontFamily=Verdana;fontSize=12;align=center;arcSize=50;" parent="1" vertex="1">
          <mxGeometry x="1285" y="600" width="100" height="30" as="geometry" />
        </mxCell>
        <mxCell id="1c1d494c118603dd-52" style="edgeStyle=none;rounded=0;html=1;dashed=1;labelBackgroundColor=none;startArrow=none;startFill=0;startSize=5;endArrow=oval;endFill=0;endSize=5;jettySize=auto;orthogonalLoop=1;strokeWidth=1;fontFamily=Verdana;fontSize=12" parent="1" source="1c1d494c118603dd-23" target="1c1d494c118603dd-11" edge="1">
          <mxGeometry relative="1" as="geometry" />
        </mxCell>
        <mxCell id="1c1d494c118603dd-53" style="edgeStyle=none;rounded=0;html=1;dashed=1;labelBackgroundColor=none;startArrow=none;startFill=0;startSize=5;endArrow=oval;endFill=0;endSize=5;jettySize=auto;orthogonalLoop=1;strokeWidth=1;fontFamily=Verdana;fontSize=12" parent="1" source="1c1d494c118603dd-23" target="1c1d494c118603dd-15" edge="1">
          <mxGeometry relative="1" as="geometry" />
        </mxCell>
        <mxCell id="1c1d494c118603dd-23" value="Note" style="shape=note;whiteSpace=wrap;html=1;rounded=0;shadow=0;comic=0;labelBackgroundColor=none;strokeWidth=1;fontFamily=Verdana;fontSize=12;align=center;size=20;" parent="1" vertex="1">
          <mxGeometry x="1210" y="530" width="90" height="55" as="geometry" />
        </mxCell>
        <mxCell id="1c1d494c118603dd-54" style="edgeStyle=none;rounded=0;html=1;dashed=1;labelBackgroundColor=none;startArrow=none;startFill=0;startSize=5;endArrow=oval;endFill=0;endSize=5;jettySize=auto;orthogonalLoop=1;strokeWidth=1;fontFamily=Verdana;fontSize=12" parent="1" source="1c1d494c118603dd-24" target="1c1d494c118603dd-16" edge="1">
          <mxGeometry relative="1" as="geometry" />
        </mxCell>
        <mxCell id="1c1d494c118603dd-24" value="Note" style="shape=note;whiteSpace=wrap;html=1;rounded=0;shadow=0;comic=0;labelBackgroundColor=none;strokeWidth=1;fontFamily=Verdana;fontSize=12;align=center;size=20;" parent="1" vertex="1">
          <mxGeometry x="1240" y="668" width="105" height="55" as="geometry" />
        </mxCell>
        <mxCell id="1c1d494c118603dd-33" style="rounded=0;html=1;labelBackgroundColor=none;startArrow=none;startFill=0;startSize=5;endArrow=classicThin;endFill=1;endSize=5;jettySize=auto;orthogonalLoop=1;strokeWidth=1;fontFamily=Verdana;fontSize=12" parent="1" source="1c1d494c118603dd-5" target="1c1d494c118603dd-9" edge="1">
          <mxGeometry relative="1" as="geometry" />
        </mxCell>
        <mxCell id="1c1d494c118603dd-5" value="Action" style="rounded=1;whiteSpace=wrap;html=1;shadow=0;comic=0;labelBackgroundColor=none;strokeWidth=1;fontFamily=Verdana;fontSize=12;align=center;arcSize=50;" parent="1" vertex="1">
          <mxGeometry x="1495" y="228" width="100" height="30" as="geometry" />
        </mxCell>
        <mxCell id="1c1d494c118603dd-38" style="edgeStyle=none;rounded=0;html=1;labelBackgroundColor=none;startArrow=none;startFill=0;startSize=5;endArrow=classicThin;endFill=1;endSize=5;jettySize=auto;orthogonalLoop=1;strokeWidth=1;fontFamily=Verdana;fontSize=12" parent="1" source="1c1d494c118603dd-8" target="1c1d494c118603dd-13" edge="1">
          <mxGeometry relative="1" as="geometry" />
        </mxCell>
        <mxCell id="1c1d494c118603dd-8" value="Action" style="rounded=1;whiteSpace=wrap;html=1;shadow=0;comic=0;labelBackgroundColor=none;strokeWidth=1;fontFamily=Verdana;fontSize=12;align=center;arcSize=50;" parent="1" vertex="1">
          <mxGeometry x="1535" y="350" width="100" height="30" as="geometry" />
        </mxCell>
        <mxCell id="1c1d494c118603dd-37" style="edgeStyle=none;rounded=0;html=1;labelBackgroundColor=none;startArrow=none;startFill=0;startSize=5;endArrow=classicThin;endFill=1;endSize=5;jettySize=auto;orthogonalLoop=1;strokeWidth=1;fontFamily=Verdana;fontSize=12" parent="1" source="1c1d494c118603dd-9" target="1c1d494c118603dd-8" edge="1">
          <mxGeometry relative="1" as="geometry" />
        </mxCell>
        <mxCell id="1c1d494c118603dd-9" value="Object" style="rounded=0;whiteSpace=wrap;html=1;shadow=0;comic=0;labelBackgroundColor=none;strokeWidth=1;fontFamily=Verdana;fontSize=12;align=center;arcSize=50;" parent="1" vertex="1">
          <mxGeometry x="1465" y="288" width="70" height="30" as="geometry" />
        </mxCell>
        <mxCell id="1c1d494c118603dd-13" value="Object" style="rounded=0;whiteSpace=wrap;html=1;shadow=0;comic=0;labelBackgroundColor=none;strokeWidth=1;fontFamily=Verdana;fontSize=12;align=center;arcSize=50;" parent="1" vertex="1">
          <mxGeometry x="1415" y="380" width="70" height="30" as="geometry" />
        </mxCell>
        <mxCell id="1c1d494c118603dd-43" style="edgeStyle=none;rounded=0;html=1;labelBackgroundColor=none;startArrow=none;startFill=0;startSize=5;endArrow=classicThin;endFill=1;endSize=5;jettySize=auto;orthogonalLoop=1;strokeWidth=1;fontFamily=Verdana;fontSize=12" parent="1" source="1c1d494c118603dd-17" target="1c1d494c118603dd-18" edge="1">
          <mxGeometry relative="1" as="geometry" />
        </mxCell>
        <mxCell id="1c1d494c118603dd-17" value="Object" style="rounded=0;whiteSpace=wrap;html=1;shadow=0;comic=0;labelBackgroundColor=none;strokeWidth=1;fontFamily=Verdana;fontSize=12;align=center;arcSize=50;" parent="1" vertex="1">
          <mxGeometry x="1415" y="630" width="70" height="30" as="geometry" />
        </mxCell>
        <mxCell id="1c1d494c118603dd-44" style="edgeStyle=none;rounded=0;html=1;labelBackgroundColor=none;startArrow=none;startFill=0;startSize=5;endArrow=classicThin;endFill=1;endSize=5;jettySize=auto;orthogonalLoop=1;strokeWidth=1;fontFamily=Verdana;fontSize=12" parent="1" source="1c1d494c118603dd-18" target="1c1d494c118603dd-19" edge="1">
          <mxGeometry relative="1" as="geometry" />
        </mxCell>
        <mxCell id="1c1d494c118603dd-18" value="Action" style="rounded=1;whiteSpace=wrap;html=1;shadow=0;comic=0;labelBackgroundColor=none;strokeWidth=1;fontFamily=Verdana;fontSize=12;align=center;arcSize=50;" parent="1" vertex="1">
          <mxGeometry x="1520" y="690" width="100" height="30" as="geometry" />
        </mxCell>
        <mxCell id="1c1d494c118603dd-45" style="edgeStyle=none;rounded=0;html=1;labelBackgroundColor=none;startArrow=none;startFill=0;startSize=5;endArrow=classicThin;endFill=1;endSize=5;jettySize=auto;orthogonalLoop=1;strokeWidth=1;fontFamily=Verdana;fontSize=12" parent="1" source="1c1d494c118603dd-19" target="60571a20871a0731-5" edge="1">
          <mxGeometry relative="1" as="geometry" />
        </mxCell>
        <mxCell id="1c1d494c118603dd-19" value="Action" style="rounded=1;whiteSpace=wrap;html=1;shadow=0;comic=0;labelBackgroundColor=none;strokeWidth=1;fontFamily=Verdana;fontSize=12;align=center;arcSize=50;" parent="1" vertex="1">
          <mxGeometry x="1520" y="830" width="100" height="30" as="geometry" />
        </mxCell>
        <mxCell id="60571a20871a0731-5" value="" style="shape=mxgraph.bpmn.shape;html=1;verticalLabelPosition=bottom;labelBackgroundColor=#ffffff;verticalAlign=top;perimeter=ellipsePerimeter;outline=end;symbol=terminate;rounded=0;shadow=0;comic=0;strokeWidth=1;fontFamily=Verdana;fontSize=12;align=center;" parent="1" vertex="1">
          <mxGeometry x="1550" y="900" width="40" height="40" as="geometry" />
        </mxCell>
        <mxCell id="1c1d494c118603dd-48" style="edgeStyle=none;rounded=0;html=1;dashed=1;labelBackgroundColor=none;startArrow=none;startFill=0;startSize=5;endArrow=oval;endFill=0;endSize=5;jettySize=auto;orthogonalLoop=1;strokeWidth=1;fontFamily=Verdana;fontSize=12" parent="1" source="1c1d494c118603dd-20" target="1c1d494c118603dd-5" edge="1">
          <mxGeometry relative="1" as="geometry" />
        </mxCell>
        <mxCell id="1c1d494c118603dd-49" style="edgeStyle=none;rounded=0;html=1;dashed=1;labelBackgroundColor=none;startArrow=none;startFill=0;startSize=5;endArrow=oval;endFill=0;endSize=5;jettySize=auto;orthogonalLoop=1;strokeWidth=1;fontFamily=Verdana;fontSize=12" parent="1" source="1c1d494c118603dd-20" target="1c1d494c118603dd-9" edge="1">
          <mxGeometry relative="1" as="geometry" />
        </mxCell>
        <mxCell id="1c1d494c118603dd-20" value="Note" style="shape=note;whiteSpace=wrap;html=1;rounded=0;shadow=0;comic=0;labelBackgroundColor=none;strokeWidth=1;fontFamily=Verdana;fontSize=12;align=center;size=20;" parent="1" vertex="1">
          <mxGeometry x="1610" y="276" width="75" height="44" as="geometry" />
        </mxCell>
        <mxCell id="1c1d494c118603dd-50" style="edgeStyle=none;rounded=0;html=1;dashed=1;labelBackgroundColor=none;startArrow=none;startFill=0;startSize=5;endArrow=oval;endFill=0;endSize=5;jettySize=auto;orthogonalLoop=1;strokeWidth=1;fontFamily=Verdana;fontSize=12" parent="1" source="1c1d494c118603dd-22" target="1c1d494c118603dd-8" edge="1">
          <mxGeometry relative="1" as="geometry" />
        </mxCell>
        <mxCell id="1c1d494c118603dd-51" style="edgeStyle=none;rounded=0;html=1;dashed=1;labelBackgroundColor=none;startArrow=none;startFill=0;startSize=5;endArrow=oval;endFill=0;endSize=5;jettySize=auto;orthogonalLoop=1;strokeWidth=1;fontFamily=Verdana;fontSize=12" parent="1" source="1c1d494c118603dd-22" target="1c1d494c118603dd-13" edge="1">
          <mxGeometry relative="1" as="geometry" />
        </mxCell>
        <mxCell id="1c1d494c118603dd-22" value="Note" style="shape=note;whiteSpace=wrap;html=1;rounded=0;shadow=0;comic=0;labelBackgroundColor=none;strokeWidth=1;fontFamily=Verdana;fontSize=12;align=center;size=20;" parent="1" vertex="1">
          <mxGeometry x="1560" y="435" width="105" height="55" as="geometry" />
        </mxCell>
        <mxCell id="1c1d494c118603dd-56" style="edgeStyle=none;rounded=0;html=1;dashed=1;labelBackgroundColor=none;startArrow=none;startFill=0;startSize=5;endArrow=oval;endFill=0;endSize=5;jettySize=auto;orthogonalLoop=1;strokeWidth=1;fontFamily=Verdana;fontSize=12" parent="1" source="1c1d494c118603dd-25" target="1c1d494c118603dd-18" edge="1">
          <mxGeometry relative="1" as="geometry" />
        </mxCell>
        <mxCell id="1c1d494c118603dd-57" style="edgeStyle=none;rounded=0;html=1;dashed=1;labelBackgroundColor=none;startArrow=none;startFill=0;startSize=5;endArrow=oval;endFill=0;endSize=5;jettySize=auto;orthogonalLoop=1;strokeWidth=1;fontFamily=Verdana;fontSize=12" parent="1" source="1c1d494c118603dd-25" target="1c1d494c118603dd-17" edge="1">
          <mxGeometry relative="1" as="geometry" />
        </mxCell>
        <mxCell id="1c1d494c118603dd-25" value="Note" style="shape=note;whiteSpace=wrap;html=1;rounded=0;shadow=0;comic=0;labelBackgroundColor=none;strokeWidth=1;fontFamily=Verdana;fontSize=12;align=center;size=20;" parent="1" vertex="1">
          <mxGeometry x="1570" y="610" width="115" height="50" as="geometry" />
        </mxCell>
        <mxCell id="1c1d494c118603dd-58" style="edgeStyle=none;rounded=0;html=1;dashed=1;labelBackgroundColor=none;startArrow=none;startFill=0;startSize=5;endArrow=oval;endFill=0;endSize=5;jettySize=auto;orthogonalLoop=1;strokeWidth=1;fontFamily=Verdana;fontSize=12" parent="1" source="1c1d494c118603dd-26" target="1c1d494c118603dd-19" edge="1">
          <mxGeometry relative="1" as="geometry" />
        </mxCell>
        <mxCell id="1c1d494c118603dd-29" style="edgeStyle=orthogonalEdgeStyle;rounded=0;html=1;exitX=0.75;exitY=1;labelBackgroundColor=none;startArrow=none;startFill=0;startSize=5;endArrow=classicThin;endFill=1;endSize=5;jettySize=auto;orthogonalLoop=1;strokeWidth=1;fontFamily=Verdana;fontSize=12" parent="1" source="60571a20871a0731-3" target="1c1d494c118603dd-5" edge="1">
          <mxGeometry relative="1" as="geometry">
            <Array as="points">
              <mxPoint x="1340" y="210" />
              <mxPoint x="1545" y="210" />
            </Array>
          </mxGeometry>
        </mxCell>
        <mxCell id="1c1d494c118603dd-30" style="edgeStyle=orthogonalEdgeStyle;rounded=0;html=1;exitX=0.25;exitY=1;entryX=0.5;entryY=0;labelBackgroundColor=none;startArrow=none;startFill=0;startSize=5;endArrow=classicThin;endFill=1;endSize=5;jettySize=auto;orthogonalLoop=1;strokeWidth=1;fontFamily=Verdana;fontSize=12" parent="1" source="60571a20871a0731-3" target="1c1d494c118603dd-6" edge="1">
          <mxGeometry relative="1" as="geometry">
            <Array as="points">
              <mxPoint x="1267" y="210" />
              <mxPoint x="1090" y="210" />
            </Array>
          </mxGeometry>
        </mxCell>
        <mxCell id="1c1d494c118603dd-31" style="edgeStyle=orthogonalEdgeStyle;rounded=0;html=1;entryX=0.75;entryY=0;labelBackgroundColor=none;startArrow=none;startFill=0;startSize=5;endArrow=classicThin;endFill=1;endSize=5;jettySize=auto;orthogonalLoop=1;strokeWidth=1;fontFamily=Verdana;fontSize=12" parent="1" source="1c1d494c118603dd-13" target="1c1d494c118603dd-12" edge="1">
          <mxGeometry relative="1" as="geometry" />
        </mxCell>
        <mxCell id="1c1d494c118603dd-36" style="edgeStyle=none;rounded=0;html=1;labelBackgroundColor=none;startArrow=none;startFill=0;startSize=5;endArrow=classicThin;endFill=1;endSize=5;jettySize=auto;orthogonalLoop=1;strokeWidth=1;fontFamily=Verdana;fontSize=12" parent="1" source="1c1d494c118603dd-7" target="1c1d494c118603dd-14" edge="1">
          <mxGeometry relative="1" as="geometry" />
        </mxCell>
        <mxCell id="1c1d494c118603dd-42" style="edgeStyle=none;rounded=0;html=1;labelBackgroundColor=none;startArrow=none;startFill=0;startSize=5;endArrow=classicThin;endFill=1;endSize=5;jettySize=auto;orthogonalLoop=1;strokeWidth=1;fontFamily=Verdana;fontSize=12" parent="1" source="1c1d494c118603dd-16" target="1c1d494c118603dd-17" edge="1">
          <mxGeometry relative="1" as="geometry" />
        </mxCell>
        <mxCell id="1c1d494c118603dd-55" style="edgeStyle=none;rounded=0;html=1;dashed=1;labelBackgroundColor=none;startArrow=none;startFill=0;startSize=5;endArrow=oval;endFill=0;endSize=5;jettySize=auto;orthogonalLoop=1;strokeWidth=1;fontFamily=Verdana;fontSize=12" parent="1" source="1c1d494c118603dd-24" target="1c1d494c118603dd-17" edge="1">
          <mxGeometry relative="1" as="geometry" />
        </mxCell>
        <mxCell id="1c1d494c118603dd-26" value="Note" style="shape=note;whiteSpace=wrap;html=1;rounded=0;shadow=0;comic=0;labelBackgroundColor=none;strokeWidth=1;fontFamily=Verdana;fontSize=12;align=center;size=20;" parent="1" vertex="1">
          <mxGeometry x="1600" y="760" width="95" height="45" as="geometry" />
        </mxCell>
        <mxCell id="1c1d494c118603dd-21" value="Note" style="shape=note;whiteSpace=wrap;html=1;rounded=0;shadow=0;comic=0;labelBackgroundColor=none;strokeWidth=1;fontFamily=Verdana;fontSize=12;align=center;size=20;" parent="1" vertex="1">
          <mxGeometry x="970" y="294" width="85" height="42" as="geometry" />
        </mxCell>
        <mxCell id="EVS3zEjeQcRhhYnlzs17-1" value="Ubah Data User Admin" style="swimlane;html=1;childLayout=stackLayout;startSize=20;rounded=0;shadow=0;comic=0;labelBackgroundColor=none;strokeWidth=1;fontFamily=Verdana;fontSize=12;align=center;" parent="1" vertex="1">
          <mxGeometry x="560" y="680" width="500" height="620" as="geometry">
            <mxRectangle x="40" y="20" width="70" height="30" as="alternateBounds" />
          </mxGeometry>
        </mxCell>
        <mxCell id="EVS3zEjeQcRhhYnlzs17-2" value="User (Super)" style="swimlane;html=1;startSize=20;" parent="EVS3zEjeQcRhhYnlzs17-1" vertex="1">
          <mxGeometry y="20" width="250" height="600" as="geometry" />
        </mxCell>
        <mxCell id="EVS3zEjeQcRhhYnlzs17-3" value="" style="ellipse;whiteSpace=wrap;html=1;rounded=0;shadow=0;comic=0;labelBackgroundColor=none;strokeWidth=1;fillColor=#000000;fontFamily=Verdana;fontSize=12;align=center;" parent="EVS3zEjeQcRhhYnlzs17-2" vertex="1">
          <mxGeometry x="105" y="40" width="40" height="40" as="geometry" />
        </mxCell>
        <mxCell id="EVS3zEjeQcRhhYnlzs17-4" value="Mengakses Halaman Kelola User Admin" style="rounded=1;whiteSpace=wrap;html=1;shadow=0;comic=0;labelBackgroundColor=none;strokeWidth=1;fontFamily=Verdana;fontSize=12;align=center;arcSize=50;" parent="EVS3zEjeQcRhhYnlzs17-2" vertex="1">
          <mxGeometry x="53.75" y="110" width="142.5" height="40" as="geometry" />
        </mxCell>
        <mxCell id="EVS3zEjeQcRhhYnlzs17-5" style="edgeStyle=orthogonalEdgeStyle;rounded=0;html=1;labelBackgroundColor=none;startArrow=none;startFill=0;startSize=5;endArrow=classicThin;endFill=1;endSize=5;jettySize=auto;orthogonalLoop=1;strokeWidth=1;fontFamily=Verdana;fontSize=12" parent="EVS3zEjeQcRhhYnlzs17-2" source="EVS3zEjeQcRhhYnlzs17-3" target="EVS3zEjeQcRhhYnlzs17-4" edge="1">
          <mxGeometry relative="1" as="geometry" />
        </mxCell>
        <mxCell id="EVS3zEjeQcRhhYnlzs17-7" value="Memilih data dan klik Tombol Ubah" style="rounded=1;whiteSpace=wrap;html=1;shadow=0;comic=0;labelBackgroundColor=none;strokeWidth=1;fontFamily=Verdana;fontSize=12;align=center;arcSize=50;" parent="EVS3zEjeQcRhhYnlzs17-2" vertex="1">
          <mxGeometry x="63.75" y="180" width="122.5" height="40" as="geometry" />
        </mxCell>
        <mxCell id="EVS3zEjeQcRhhYnlzs17-62" value="Mengubah isi Form Ubah Data" style="rounded=1;whiteSpace=wrap;html=1;shadow=0;comic=0;labelBackgroundColor=none;strokeWidth=1;fontFamily=Verdana;fontSize=12;align=center;arcSize=50;" parent="EVS3zEjeQcRhhYnlzs17-2" vertex="1">
          <mxGeometry x="67.5" y="250" width="115" height="40" as="geometry" />
        </mxCell>
        <mxCell id="Ftfzk--W6nuzLrWudvyC-4" value="Klik Tombol Ubah Data" style="rounded=1;whiteSpace=wrap;html=1;shadow=0;comic=0;labelBackgroundColor=none;strokeWidth=1;fontFamily=Verdana;fontSize=12;align=center;arcSize=50;" parent="EVS3zEjeQcRhhYnlzs17-2" vertex="1">
          <mxGeometry x="67.5" y="310" width="115" height="40" as="geometry" />
        </mxCell>
        <mxCell id="EVS3zEjeQcRhhYnlzs17-25" style="edgeStyle=orthogonalEdgeStyle;rounded=0;orthogonalLoop=1;jettySize=auto;html=1;" parent="EVS3zEjeQcRhhYnlzs17-2" source="EVS3zEjeQcRhhYnlzs17-62" target="Ftfzk--W6nuzLrWudvyC-4" edge="1">
          <mxGeometry relative="1" as="geometry">
            <mxPoint x="155" y="269.9999999999998" as="sourcePoint" />
            <Array as="points" />
          </mxGeometry>
        </mxCell>
        <mxCell id="EVS3zEjeQcRhhYnlzs17-9" value="Sistem" style="swimlane;html=1;startSize=20;" parent="EVS3zEjeQcRhhYnlzs17-1" vertex="1">
          <mxGeometry x="250" y="20" width="250" height="600" as="geometry" />
        </mxCell>
        <mxCell id="EVS3zEjeQcRhhYnlzs17-10" value="Menampilkan daftar data User Admin" style="rounded=1;whiteSpace=wrap;html=1;shadow=0;comic=0;labelBackgroundColor=none;strokeWidth=1;fontFamily=Verdana;fontSize=12;align=center;arcSize=50;" parent="EVS3zEjeQcRhhYnlzs17-9" vertex="1">
          <mxGeometry x="53.75" y="110" width="142.5" height="40" as="geometry" />
        </mxCell>
        <mxCell id="EVS3zEjeQcRhhYnlzs17-11" style="edgeStyle=orthogonalEdgeStyle;rounded=0;orthogonalLoop=1;jettySize=auto;html=1;" parent="EVS3zEjeQcRhhYnlzs17-9" source="EVS3zEjeQcRhhYnlzs17-12" target="EVS3zEjeQcRhhYnlzs17-17" edge="1">
          <mxGeometry relative="1" as="geometry">
            <Array as="points">
              <mxPoint x="80" y="360" />
              <mxPoint x="80" y="360" />
            </Array>
          </mxGeometry>
        </mxCell>
        <mxCell id="EVS3zEjeQcRhhYnlzs17-12" value="Validasi input" style="rounded=1;whiteSpace=wrap;html=1;shadow=0;comic=0;labelBackgroundColor=none;strokeWidth=1;fontFamily=Verdana;fontSize=12;align=center;arcSize=50;" parent="EVS3zEjeQcRhhYnlzs17-9" vertex="1">
          <mxGeometry x="30" y="310" width="115" height="40" as="geometry" />
        </mxCell>
        <mxCell id="EVS3zEjeQcRhhYnlzs17-13" style="edgeStyle=orthogonalEdgeStyle;rounded=0;orthogonalLoop=1;jettySize=auto;html=1;" parent="EVS3zEjeQcRhhYnlzs17-9" source="EVS3zEjeQcRhhYnlzs17-17" target="EVS3zEjeQcRhhYnlzs17-19" edge="1">
          <mxGeometry relative="1" as="geometry">
            <Array as="points">
              <mxPoint x="167" y="395" />
            </Array>
          </mxGeometry>
        </mxCell>
        <mxCell id="EVS3zEjeQcRhhYnlzs17-14" value="False" style="edgeLabel;html=1;align=center;verticalAlign=middle;resizable=0;points=[];" parent="EVS3zEjeQcRhhYnlzs17-13" vertex="1" connectable="0">
          <mxGeometry x="-0.0605" y="2" relative="1" as="geometry">
            <mxPoint x="10" y="2" as="offset" />
          </mxGeometry>
        </mxCell>
        <mxCell id="EVS3zEjeQcRhhYnlzs17-15" style="edgeStyle=orthogonalEdgeStyle;rounded=0;orthogonalLoop=1;jettySize=auto;html=1;" parent="EVS3zEjeQcRhhYnlzs17-9" source="EVS3zEjeQcRhhYnlzs17-17" target="EVS3zEjeQcRhhYnlzs17-21" edge="1">
          <mxGeometry relative="1" as="geometry">
            <Array as="points">
              <mxPoint x="20" y="395" />
              <mxPoint x="20" y="500" />
            </Array>
          </mxGeometry>
        </mxCell>
        <mxCell id="EVS3zEjeQcRhhYnlzs17-16" value="True" style="edgeLabel;html=1;align=center;verticalAlign=middle;resizable=0;points=[];" parent="EVS3zEjeQcRhhYnlzs17-15" vertex="1" connectable="0">
          <mxGeometry x="0.1515" y="-4" relative="1" as="geometry">
            <mxPoint as="offset" />
          </mxGeometry>
        </mxCell>
        <mxCell id="EVS3zEjeQcRhhYnlzs17-17" value="Valid?" style="points=[[0.25,0.25,0],[0.5,0,0],[0.75,0.25,0],[1,0.5,0],[0.75,0.75,0],[0.5,1,0],[0.25,0.75,0],[0,0.5,0]];shape=mxgraph.bpmn.gateway2;html=1;verticalLabelPosition=bottom;labelBackgroundColor=#ffffff;verticalAlign=top;align=center;perimeter=rhombusPerimeter;outlineConnect=0;outline=none;symbol=none;rotation=0;" parent="EVS3zEjeQcRhhYnlzs17-9" vertex="1">
          <mxGeometry x="54.750000000000114" y="370" width="50" height="50" as="geometry" />
        </mxCell>
        <mxCell id="EVS3zEjeQcRhhYnlzs17-18" style="edgeStyle=orthogonalEdgeStyle;rounded=0;orthogonalLoop=1;jettySize=auto;html=1;" parent="EVS3zEjeQcRhhYnlzs17-9" source="EVS3zEjeQcRhhYnlzs17-19" target="EVS3zEjeQcRhhYnlzs17-61" edge="1">
          <mxGeometry relative="1" as="geometry">
            <Array as="points">
              <mxPoint x="230" y="450" />
              <mxPoint x="230" y="200" />
            </Array>
          </mxGeometry>
        </mxCell>
        <mxCell id="EVS3zEjeQcRhhYnlzs17-19" value="Menampilkan Pesan Kesalahan" style="rounded=1;whiteSpace=wrap;html=1;shadow=0;comic=0;labelBackgroundColor=none;strokeWidth=1;fontFamily=Verdana;fontSize=12;align=center;arcSize=50;" parent="EVS3zEjeQcRhhYnlzs17-9" vertex="1">
          <mxGeometry x="100" y="430" width="115" height="40" as="geometry" />
        </mxCell>
        <mxCell id="EVS3zEjeQcRhhYnlzs17-20" style="edgeStyle=orthogonalEdgeStyle;rounded=0;orthogonalLoop=1;jettySize=auto;html=1;entryX=0.5;entryY=0;entryDx=0;entryDy=0;" parent="EVS3zEjeQcRhhYnlzs17-9" source="EVS3zEjeQcRhhYnlzs17-21" target="EVS3zEjeQcRhhYnlzs17-22" edge="1">
          <mxGeometry relative="1" as="geometry" />
        </mxCell>
        <mxCell id="EVS3zEjeQcRhhYnlzs17-21" value="Tampilkan Halaman Kelola User Admin" style="rounded=1;whiteSpace=wrap;html=1;shadow=0;comic=0;labelBackgroundColor=none;strokeWidth=1;fontFamily=Verdana;fontSize=12;align=center;arcSize=50;" parent="EVS3zEjeQcRhhYnlzs17-9" vertex="1">
          <mxGeometry x="40" y="480" width="142.5" height="40" as="geometry" />
        </mxCell>
        <mxCell id="EVS3zEjeQcRhhYnlzs17-22" value="" style="shape=mxgraph.bpmn.shape;html=1;verticalLabelPosition=bottom;labelBackgroundColor=#ffffff;verticalAlign=top;perimeter=ellipsePerimeter;outline=end;symbol=terminate;rounded=0;shadow=0;comic=0;strokeWidth=1;fontFamily=Verdana;fontSize=12;align=center;" parent="EVS3zEjeQcRhhYnlzs17-9" vertex="1">
          <mxGeometry x="91.25" y="540" width="40" height="40" as="geometry" />
        </mxCell>
        <mxCell id="EVS3zEjeQcRhhYnlzs17-61" value="Menampilkan Form Ubah Data" style="rounded=1;whiteSpace=wrap;html=1;shadow=0;comic=0;labelBackgroundColor=none;strokeWidth=1;fontFamily=Verdana;fontSize=12;align=center;arcSize=50;" parent="EVS3zEjeQcRhhYnlzs17-9" vertex="1">
          <mxGeometry x="58.75" y="180" width="132.5" height="40" as="geometry" />
        </mxCell>
        <mxCell id="EVS3zEjeQcRhhYnlzs17-23" style="edgeStyle=orthogonalEdgeStyle;rounded=0;orthogonalLoop=1;jettySize=auto;html=1;" parent="EVS3zEjeQcRhhYnlzs17-1" source="EVS3zEjeQcRhhYnlzs17-4" target="EVS3zEjeQcRhhYnlzs17-10" edge="1">
          <mxGeometry relative="1" as="geometry">
            <mxPoint x="325" y="140" as="targetPoint" />
          </mxGeometry>
        </mxCell>
        <mxCell id="EVS3zEjeQcRhhYnlzs17-24" style="edgeStyle=orthogonalEdgeStyle;rounded=0;orthogonalLoop=1;jettySize=auto;html=1;" parent="EVS3zEjeQcRhhYnlzs17-1" source="EVS3zEjeQcRhhYnlzs17-10" target="EVS3zEjeQcRhhYnlzs17-7" edge="1">
          <mxGeometry relative="1" as="geometry">
            <mxPoint x="370.0588235294117" y="155" as="sourcePoint" />
            <Array as="points">
              <mxPoint x="370" y="180" />
              <mxPoint x="125" y="180" />
            </Array>
          </mxGeometry>
        </mxCell>
        <mxCell id="EVS3zEjeQcRhhYnlzs17-6" style="edgeStyle=orthogonalEdgeStyle;rounded=0;orthogonalLoop=1;jettySize=auto;html=1;" parent="EVS3zEjeQcRhhYnlzs17-1" source="EVS3zEjeQcRhhYnlzs17-7" target="EVS3zEjeQcRhhYnlzs17-61" edge="1">
          <mxGeometry relative="1" as="geometry">
            <mxPoint x="97.47058823529414" y="269.9999999999998" as="targetPoint" />
          </mxGeometry>
        </mxCell>
        <mxCell id="EVS3zEjeQcRhhYnlzs17-63" style="edgeStyle=orthogonalEdgeStyle;rounded=0;orthogonalLoop=1;jettySize=auto;html=1;" parent="EVS3zEjeQcRhhYnlzs17-1" source="EVS3zEjeQcRhhYnlzs17-61" target="EVS3zEjeQcRhhYnlzs17-62" edge="1">
          <mxGeometry relative="1" as="geometry">
            <Array as="points">
              <mxPoint x="375" y="250" />
              <mxPoint x="125" y="250" />
            </Array>
          </mxGeometry>
        </mxCell>
        <mxCell id="Ftfzk--W6nuzLrWudvyC-5" style="edgeStyle=orthogonalEdgeStyle;rounded=0;orthogonalLoop=1;jettySize=auto;html=1;" parent="EVS3zEjeQcRhhYnlzs17-1" source="Ftfzk--W6nuzLrWudvyC-4" target="EVS3zEjeQcRhhYnlzs17-12" edge="1">
          <mxGeometry relative="1" as="geometry" />
        </mxCell>
        <mxCell id="EVS3zEjeQcRhhYnlzs17-26" value="Tambah Data User Admin" style="swimlane;html=1;childLayout=stackLayout;startSize=20;rounded=0;shadow=0;comic=0;labelBackgroundColor=none;strokeWidth=1;fontFamily=Verdana;fontSize=12;align=center;" parent="1" vertex="1">
          <mxGeometry x="40" y="680" width="500" height="620" as="geometry">
            <mxRectangle x="40" y="20" width="70" height="30" as="alternateBounds" />
          </mxGeometry>
        </mxCell>
        <mxCell id="EVS3zEjeQcRhhYnlzs17-27" value="User (Super)" style="swimlane;html=1;startSize=20;" parent="EVS3zEjeQcRhhYnlzs17-26" vertex="1">
          <mxGeometry y="20" width="250" height="600" as="geometry" />
        </mxCell>
        <mxCell id="EVS3zEjeQcRhhYnlzs17-28" value="" style="ellipse;whiteSpace=wrap;html=1;rounded=0;shadow=0;comic=0;labelBackgroundColor=none;strokeWidth=1;fillColor=#000000;fontFamily=Verdana;fontSize=12;align=center;" parent="EVS3zEjeQcRhhYnlzs17-27" vertex="1">
          <mxGeometry x="105" y="40" width="40" height="40" as="geometry" />
        </mxCell>
        <mxCell id="EVS3zEjeQcRhhYnlzs17-29" value="Mengakses Halaman Kelola User Admin" style="rounded=1;whiteSpace=wrap;html=1;shadow=0;comic=0;labelBackgroundColor=none;strokeWidth=1;fontFamily=Verdana;fontSize=12;align=center;arcSize=50;" parent="EVS3zEjeQcRhhYnlzs17-27" vertex="1">
          <mxGeometry x="53.75" y="100" width="142.5" height="40" as="geometry" />
        </mxCell>
        <mxCell id="EVS3zEjeQcRhhYnlzs17-30" style="edgeStyle=orthogonalEdgeStyle;rounded=0;html=1;labelBackgroundColor=none;startArrow=none;startFill=0;startSize=5;endArrow=classicThin;endFill=1;endSize=5;jettySize=auto;orthogonalLoop=1;strokeWidth=1;fontFamily=Verdana;fontSize=12" parent="EVS3zEjeQcRhhYnlzs17-27" source="EVS3zEjeQcRhhYnlzs17-28" target="EVS3zEjeQcRhhYnlzs17-29" edge="1">
          <mxGeometry relative="1" as="geometry" />
        </mxCell>
        <mxCell id="EVS3zEjeQcRhhYnlzs17-32" value="Klik Tombol Tambah Data" style="rounded=1;whiteSpace=wrap;html=1;shadow=0;comic=0;labelBackgroundColor=none;strokeWidth=1;fontFamily=Verdana;fontSize=12;align=center;arcSize=50;" parent="EVS3zEjeQcRhhYnlzs17-27" vertex="1">
          <mxGeometry x="67.5" y="160" width="115" height="40" as="geometry" />
        </mxCell>
        <mxCell id="EVS3zEjeQcRhhYnlzs17-52" value="Mengisi Form Tambah Data" style="rounded=1;whiteSpace=wrap;html=1;shadow=0;comic=0;labelBackgroundColor=none;strokeWidth=1;fontFamily=Verdana;fontSize=12;align=center;arcSize=50;" parent="EVS3zEjeQcRhhYnlzs17-27" vertex="1">
          <mxGeometry x="67.5" y="230" width="115" height="40" as="geometry" />
        </mxCell>
        <mxCell id="Ftfzk--W6nuzLrWudvyC-1" value="Klik Tombol Tambah Data" style="rounded=1;whiteSpace=wrap;html=1;shadow=0;comic=0;labelBackgroundColor=none;strokeWidth=1;fontFamily=Verdana;fontSize=12;align=center;arcSize=50;" parent="EVS3zEjeQcRhhYnlzs17-27" vertex="1">
          <mxGeometry x="67.5" y="290" width="115" height="40" as="geometry" />
        </mxCell>
        <mxCell id="EVS3zEjeQcRhhYnlzs17-55" style="edgeStyle=orthogonalEdgeStyle;rounded=0;orthogonalLoop=1;jettySize=auto;html=1;" parent="EVS3zEjeQcRhhYnlzs17-27" source="EVS3zEjeQcRhhYnlzs17-52" target="Ftfzk--W6nuzLrWudvyC-1" edge="1">
          <mxGeometry relative="1" as="geometry">
            <Array as="points" />
          </mxGeometry>
        </mxCell>
        <mxCell id="EVS3zEjeQcRhhYnlzs17-34" value="Sistem" style="swimlane;html=1;startSize=20;" parent="EVS3zEjeQcRhhYnlzs17-26" vertex="1">
          <mxGeometry x="250" y="20" width="250" height="600" as="geometry" />
        </mxCell>
        <mxCell id="EVS3zEjeQcRhhYnlzs17-35" value="Menampilkan daftar data User Admin" style="rounded=1;whiteSpace=wrap;html=1;shadow=0;comic=0;labelBackgroundColor=none;strokeWidth=1;fontFamily=Verdana;fontSize=12;align=center;arcSize=50;" parent="EVS3zEjeQcRhhYnlzs17-34" vertex="1">
          <mxGeometry x="53.75" y="100" width="142.5" height="40" as="geometry" />
        </mxCell>
        <mxCell id="EVS3zEjeQcRhhYnlzs17-37" value="Menampilkan Form Tambah Data" style="rounded=1;whiteSpace=wrap;html=1;shadow=0;comic=0;labelBackgroundColor=none;strokeWidth=1;fontFamily=Verdana;fontSize=12;align=center;arcSize=50;" parent="EVS3zEjeQcRhhYnlzs17-34" vertex="1">
          <mxGeometry x="58.75" y="200" width="132.5" height="40" as="geometry" />
        </mxCell>
        <mxCell id="EVS3zEjeQcRhhYnlzs17-38" style="edgeStyle=orthogonalEdgeStyle;rounded=0;orthogonalLoop=1;jettySize=auto;html=1;" parent="EVS3zEjeQcRhhYnlzs17-34" source="EVS3zEjeQcRhhYnlzs17-42" target="EVS3zEjeQcRhhYnlzs17-44" edge="1">
          <mxGeometry relative="1" as="geometry">
            <Array as="points">
              <mxPoint x="167" y="385" />
            </Array>
          </mxGeometry>
        </mxCell>
        <mxCell id="EVS3zEjeQcRhhYnlzs17-39" value="False" style="edgeLabel;html=1;align=center;verticalAlign=middle;resizable=0;points=[];" parent="EVS3zEjeQcRhhYnlzs17-38" vertex="1" connectable="0">
          <mxGeometry x="-0.0605" y="2" relative="1" as="geometry">
            <mxPoint y="2" as="offset" />
          </mxGeometry>
        </mxCell>
        <mxCell id="EVS3zEjeQcRhhYnlzs17-40" style="edgeStyle=orthogonalEdgeStyle;rounded=0;orthogonalLoop=1;jettySize=auto;html=1;" parent="EVS3zEjeQcRhhYnlzs17-34" source="EVS3zEjeQcRhhYnlzs17-42" target="EVS3zEjeQcRhhYnlzs17-46" edge="1">
          <mxGeometry relative="1" as="geometry">
            <Array as="points">
              <mxPoint x="30" y="385" />
              <mxPoint x="30" y="490" />
            </Array>
          </mxGeometry>
        </mxCell>
        <mxCell id="EVS3zEjeQcRhhYnlzs17-41" value="True" style="edgeLabel;html=1;align=center;verticalAlign=middle;resizable=0;points=[];" parent="EVS3zEjeQcRhhYnlzs17-40" vertex="1" connectable="0">
          <mxGeometry x="0.1515" y="-4" relative="1" as="geometry">
            <mxPoint as="offset" />
          </mxGeometry>
        </mxCell>
        <mxCell id="EVS3zEjeQcRhhYnlzs17-42" value="Valid?" style="points=[[0.25,0.25,0],[0.5,0,0],[0.75,0.25,0],[1,0.5,0],[0.75,0.75,0],[0.5,1,0],[0.25,0.75,0],[0,0.5,0]];shape=mxgraph.bpmn.gateway2;html=1;verticalLabelPosition=bottom;labelBackgroundColor=#ffffff;verticalAlign=top;align=center;perimeter=rhombusPerimeter;outlineConnect=0;outline=none;symbol=none;rotation=0;" parent="EVS3zEjeQcRhhYnlzs17-34" vertex="1">
          <mxGeometry x="70.00000000000011" y="360" width="50" height="50" as="geometry" />
        </mxCell>
        <mxCell id="EVS3zEjeQcRhhYnlzs17-43" style="edgeStyle=orthogonalEdgeStyle;rounded=0;orthogonalLoop=1;jettySize=auto;html=1;" parent="EVS3zEjeQcRhhYnlzs17-34" source="EVS3zEjeQcRhhYnlzs17-44" target="EVS3zEjeQcRhhYnlzs17-37" edge="1">
          <mxGeometry relative="1" as="geometry">
            <Array as="points">
              <mxPoint x="230" y="450" />
              <mxPoint x="230" y="220" />
            </Array>
          </mxGeometry>
        </mxCell>
        <mxCell id="EVS3zEjeQcRhhYnlzs17-44" value="Menampilkan Pesan Kesalahan" style="rounded=1;whiteSpace=wrap;html=1;shadow=0;comic=0;labelBackgroundColor=none;strokeWidth=1;fontFamily=Verdana;fontSize=12;align=center;arcSize=50;" parent="EVS3zEjeQcRhhYnlzs17-34" vertex="1">
          <mxGeometry x="105" y="430" width="115" height="40" as="geometry" />
        </mxCell>
        <mxCell id="EVS3zEjeQcRhhYnlzs17-45" style="edgeStyle=orthogonalEdgeStyle;rounded=0;orthogonalLoop=1;jettySize=auto;html=1;entryX=0.5;entryY=0;entryDx=0;entryDy=0;" parent="EVS3zEjeQcRhhYnlzs17-34" source="EVS3zEjeQcRhhYnlzs17-46" target="EVS3zEjeQcRhhYnlzs17-47" edge="1">
          <mxGeometry relative="1" as="geometry" />
        </mxCell>
        <mxCell id="EVS3zEjeQcRhhYnlzs17-46" value="Tampilkan Halaman Kelola User Admin" style="rounded=1;whiteSpace=wrap;html=1;shadow=0;comic=0;labelBackgroundColor=none;strokeWidth=1;fontFamily=Verdana;fontSize=12;align=center;arcSize=50;" parent="EVS3zEjeQcRhhYnlzs17-34" vertex="1">
          <mxGeometry x="53.75" y="480" width="142.5" height="40" as="geometry" />
        </mxCell>
        <mxCell id="EVS3zEjeQcRhhYnlzs17-47" value="" style="shape=mxgraph.bpmn.shape;html=1;verticalLabelPosition=bottom;labelBackgroundColor=#ffffff;verticalAlign=top;perimeter=ellipsePerimeter;outline=end;symbol=terminate;rounded=0;shadow=0;comic=0;strokeWidth=1;fontFamily=Verdana;fontSize=12;align=center;" parent="EVS3zEjeQcRhhYnlzs17-34" vertex="1">
          <mxGeometry x="105" y="540" width="40" height="40" as="geometry" />
        </mxCell>
        <mxCell id="EVS3zEjeQcRhhYnlzs17-56" style="edgeStyle=orthogonalEdgeStyle;rounded=0;orthogonalLoop=1;jettySize=auto;html=1;" parent="EVS3zEjeQcRhhYnlzs17-34" source="EVS3zEjeQcRhhYnlzs17-53" target="EVS3zEjeQcRhhYnlzs17-42" edge="1">
          <mxGeometry relative="1" as="geometry" />
        </mxCell>
        <mxCell id="EVS3zEjeQcRhhYnlzs17-53" value="Validasi input" style="rounded=1;whiteSpace=wrap;html=1;shadow=0;comic=0;labelBackgroundColor=none;strokeWidth=1;fontFamily=Verdana;fontSize=12;align=center;arcSize=50;" parent="EVS3zEjeQcRhhYnlzs17-34" vertex="1">
          <mxGeometry x="37.5" y="290" width="115" height="40" as="geometry" />
        </mxCell>
        <mxCell id="EVS3zEjeQcRhhYnlzs17-48" style="edgeStyle=orthogonalEdgeStyle;rounded=0;orthogonalLoop=1;jettySize=auto;html=1;" parent="EVS3zEjeQcRhhYnlzs17-26" source="EVS3zEjeQcRhhYnlzs17-29" target="EVS3zEjeQcRhhYnlzs17-35" edge="1">
          <mxGeometry relative="1" as="geometry">
            <mxPoint x="325" y="140" as="targetPoint" />
          </mxGeometry>
        </mxCell>
        <mxCell id="EVS3zEjeQcRhhYnlzs17-49" style="edgeStyle=orthogonalEdgeStyle;rounded=0;orthogonalLoop=1;jettySize=auto;html=1;" parent="EVS3zEjeQcRhhYnlzs17-26" source="EVS3zEjeQcRhhYnlzs17-35" target="EVS3zEjeQcRhhYnlzs17-32" edge="1">
          <mxGeometry relative="1" as="geometry">
            <mxPoint x="370.0588235294117" y="155" as="sourcePoint" />
            <Array as="points">
              <mxPoint x="370" y="200" />
            </Array>
          </mxGeometry>
        </mxCell>
        <mxCell id="EVS3zEjeQcRhhYnlzs17-51" style="edgeStyle=orthogonalEdgeStyle;rounded=0;orthogonalLoop=1;jettySize=auto;html=1;" parent="EVS3zEjeQcRhhYnlzs17-26" source="EVS3zEjeQcRhhYnlzs17-32" target="EVS3zEjeQcRhhYnlzs17-37" edge="1">
          <mxGeometry relative="1" as="geometry">
            <Array as="points">
              <mxPoint x="125" y="240" />
            </Array>
          </mxGeometry>
        </mxCell>
        <mxCell id="EVS3zEjeQcRhhYnlzs17-36" style="edgeStyle=orthogonalEdgeStyle;rounded=0;orthogonalLoop=1;jettySize=auto;html=1;" parent="EVS3zEjeQcRhhYnlzs17-26" source="EVS3zEjeQcRhhYnlzs17-37" target="EVS3zEjeQcRhhYnlzs17-52" edge="1">
          <mxGeometry relative="1" as="geometry">
            <Array as="points">
              <mxPoint x="375" y="270" />
            </Array>
          </mxGeometry>
        </mxCell>
        <mxCell id="Ftfzk--W6nuzLrWudvyC-2" style="edgeStyle=orthogonalEdgeStyle;rounded=0;orthogonalLoop=1;jettySize=auto;html=1;" parent="EVS3zEjeQcRhhYnlzs17-26" source="Ftfzk--W6nuzLrWudvyC-1" target="EVS3zEjeQcRhhYnlzs17-53" edge="1">
          <mxGeometry relative="1" as="geometry" />
        </mxCell>
        <mxCell id="AIw0YnytM_WcK_We3Al_-55" value="Ubah Data Kategori Produk" style="swimlane;html=1;childLayout=stackLayout;startSize=20;rounded=0;shadow=0;comic=0;labelBackgroundColor=none;strokeWidth=1;fontFamily=Verdana;fontSize=12;align=center;" parent="1" vertex="1">
          <mxGeometry x="560" y="1340" width="500" height="620" as="geometry">
            <mxRectangle x="40" y="20" width="70" height="30" as="alternateBounds" />
          </mxGeometry>
        </mxCell>
        <mxCell id="AIw0YnytM_WcK_We3Al_-56" value="User (Super, Admin)" style="swimlane;html=1;startSize=20;" parent="AIw0YnytM_WcK_We3Al_-55" vertex="1">
          <mxGeometry y="20" width="250" height="600" as="geometry" />
        </mxCell>
        <mxCell id="AIw0YnytM_WcK_We3Al_-57" value="" style="ellipse;whiteSpace=wrap;html=1;rounded=0;shadow=0;comic=0;labelBackgroundColor=none;strokeWidth=1;fillColor=#000000;fontFamily=Verdana;fontSize=12;align=center;" parent="AIw0YnytM_WcK_We3Al_-56" vertex="1">
          <mxGeometry x="105" y="40" width="40" height="40" as="geometry" />
        </mxCell>
        <mxCell id="AIw0YnytM_WcK_We3Al_-58" value="Mengakses Halaman Kategori Produk" style="rounded=1;whiteSpace=wrap;html=1;shadow=0;comic=0;labelBackgroundColor=none;strokeWidth=1;fontFamily=Verdana;fontSize=12;align=center;arcSize=50;" parent="AIw0YnytM_WcK_We3Al_-56" vertex="1">
          <mxGeometry x="53.75" y="110" width="142.5" height="40" as="geometry" />
        </mxCell>
        <mxCell id="AIw0YnytM_WcK_We3Al_-59" style="edgeStyle=orthogonalEdgeStyle;rounded=0;html=1;labelBackgroundColor=none;startArrow=none;startFill=0;startSize=5;endArrow=classicThin;endFill=1;endSize=5;jettySize=auto;orthogonalLoop=1;strokeWidth=1;fontFamily=Verdana;fontSize=12" parent="AIw0YnytM_WcK_We3Al_-56" source="AIw0YnytM_WcK_We3Al_-57" target="AIw0YnytM_WcK_We3Al_-58" edge="1">
          <mxGeometry relative="1" as="geometry" />
        </mxCell>
        <mxCell id="AIw0YnytM_WcK_We3Al_-60" value="Memilih data dan klik Tombol Ubah" style="rounded=1;whiteSpace=wrap;html=1;shadow=0;comic=0;labelBackgroundColor=none;strokeWidth=1;fontFamily=Verdana;fontSize=12;align=center;arcSize=50;" parent="AIw0YnytM_WcK_We3Al_-56" vertex="1">
          <mxGeometry x="63.75" y="180" width="122.5" height="40" as="geometry" />
        </mxCell>
        <mxCell id="AIw0YnytM_WcK_We3Al_-61" value="Mengubah isi Form Ubah Data" style="rounded=1;whiteSpace=wrap;html=1;shadow=0;comic=0;labelBackgroundColor=none;strokeWidth=1;fontFamily=Verdana;fontSize=12;align=center;arcSize=50;" parent="AIw0YnytM_WcK_We3Al_-56" vertex="1">
          <mxGeometry x="10" y="250" width="115" height="40" as="geometry" />
        </mxCell>
        <mxCell id="Ftfzk--W6nuzLrWudvyC-6" value="Klik Tombol Ubah Data" style="rounded=1;whiteSpace=wrap;html=1;shadow=0;comic=0;labelBackgroundColor=none;strokeWidth=1;fontFamily=Verdana;fontSize=12;align=center;arcSize=50;" parent="AIw0YnytM_WcK_We3Al_-56" vertex="1">
          <mxGeometry x="125" y="290" width="115" height="40" as="geometry" />
        </mxCell>
        <mxCell id="AIw0YnytM_WcK_We3Al_-79" style="edgeStyle=orthogonalEdgeStyle;rounded=0;orthogonalLoop=1;jettySize=auto;html=1;" parent="AIw0YnytM_WcK_We3Al_-56" source="AIw0YnytM_WcK_We3Al_-61" target="Ftfzk--W6nuzLrWudvyC-6" edge="1">
          <mxGeometry relative="1" as="geometry">
            <mxPoint x="155" y="269.9999999999998" as="sourcePoint" />
            <Array as="points">
              <mxPoint x="183" y="270" />
            </Array>
          </mxGeometry>
        </mxCell>
        <mxCell id="AIw0YnytM_WcK_We3Al_-62" value="Sistem" style="swimlane;html=1;startSize=20;" parent="AIw0YnytM_WcK_We3Al_-55" vertex="1">
          <mxGeometry x="250" y="20" width="250" height="600" as="geometry" />
        </mxCell>
        <mxCell id="AIw0YnytM_WcK_We3Al_-63" value="Menampilkan daftar data Kategori Produk" style="rounded=1;whiteSpace=wrap;html=1;shadow=0;comic=0;labelBackgroundColor=none;strokeWidth=1;fontFamily=Verdana;fontSize=12;align=center;arcSize=50;" parent="AIw0YnytM_WcK_We3Al_-62" vertex="1">
          <mxGeometry x="53.75" y="110" width="142.5" height="40" as="geometry" />
        </mxCell>
        <mxCell id="AIw0YnytM_WcK_We3Al_-64" style="edgeStyle=orthogonalEdgeStyle;rounded=0;orthogonalLoop=1;jettySize=auto;html=1;" parent="AIw0YnytM_WcK_We3Al_-62" source="AIw0YnytM_WcK_We3Al_-65" target="AIw0YnytM_WcK_We3Al_-70" edge="1">
          <mxGeometry relative="1" as="geometry" />
        </mxCell>
        <mxCell id="AIw0YnytM_WcK_We3Al_-65" value="Validasi input" style="rounded=1;whiteSpace=wrap;html=1;shadow=0;comic=0;labelBackgroundColor=none;strokeWidth=1;fontFamily=Verdana;fontSize=12;align=center;arcSize=50;" parent="AIw0YnytM_WcK_We3Al_-62" vertex="1">
          <mxGeometry x="100" y="290" width="115" height="40" as="geometry" />
        </mxCell>
        <mxCell id="AIw0YnytM_WcK_We3Al_-66" style="edgeStyle=orthogonalEdgeStyle;rounded=0;orthogonalLoop=1;jettySize=auto;html=1;" parent="AIw0YnytM_WcK_We3Al_-62" source="AIw0YnytM_WcK_We3Al_-70" target="AIw0YnytM_WcK_We3Al_-72" edge="1">
          <mxGeometry relative="1" as="geometry">
            <Array as="points">
              <mxPoint x="167" y="395" />
            </Array>
          </mxGeometry>
        </mxCell>
        <mxCell id="AIw0YnytM_WcK_We3Al_-67" value="False" style="edgeLabel;html=1;align=center;verticalAlign=middle;resizable=0;points=[];" parent="AIw0YnytM_WcK_We3Al_-66" vertex="1" connectable="0">
          <mxGeometry x="-0.0605" y="2" relative="1" as="geometry">
            <mxPoint x="9" y="2" as="offset" />
          </mxGeometry>
        </mxCell>
        <mxCell id="AIw0YnytM_WcK_We3Al_-68" style="edgeStyle=orthogonalEdgeStyle;rounded=0;orthogonalLoop=1;jettySize=auto;html=1;" parent="AIw0YnytM_WcK_We3Al_-62" source="AIw0YnytM_WcK_We3Al_-70" target="AIw0YnytM_WcK_We3Al_-74" edge="1">
          <mxGeometry relative="1" as="geometry">
            <Array as="points">
              <mxPoint x="20" y="395" />
              <mxPoint x="20" y="500" />
            </Array>
          </mxGeometry>
        </mxCell>
        <mxCell id="AIw0YnytM_WcK_We3Al_-69" value="True" style="edgeLabel;html=1;align=center;verticalAlign=middle;resizable=0;points=[];" parent="AIw0YnytM_WcK_We3Al_-68" vertex="1" connectable="0">
          <mxGeometry x="0.1515" y="-4" relative="1" as="geometry">
            <mxPoint as="offset" />
          </mxGeometry>
        </mxCell>
        <mxCell id="AIw0YnytM_WcK_We3Al_-70" value="Valid?" style="points=[[0.25,0.25,0],[0.5,0,0],[0.75,0.25,0],[1,0.5,0],[0.75,0.75,0],[0.5,1,0],[0.25,0.75,0],[0,0.5,0]];shape=mxgraph.bpmn.gateway2;html=1;verticalLabelPosition=bottom;labelBackgroundColor=#ffffff;verticalAlign=top;align=center;perimeter=rhombusPerimeter;outlineConnect=0;outline=none;symbol=none;rotation=0;" parent="AIw0YnytM_WcK_We3Al_-62" vertex="1">
          <mxGeometry x="55.000000000000114" y="370" width="50" height="50" as="geometry" />
        </mxCell>
        <mxCell id="AIw0YnytM_WcK_We3Al_-71" style="edgeStyle=orthogonalEdgeStyle;rounded=0;orthogonalLoop=1;jettySize=auto;html=1;" parent="AIw0YnytM_WcK_We3Al_-62" source="AIw0YnytM_WcK_We3Al_-72" target="AIw0YnytM_WcK_We3Al_-76" edge="1">
          <mxGeometry relative="1" as="geometry">
            <Array as="points">
              <mxPoint x="230" y="450" />
              <mxPoint x="230" y="200" />
            </Array>
          </mxGeometry>
        </mxCell>
        <mxCell id="AIw0YnytM_WcK_We3Al_-72" value="Menampilkan Pesan Kesalahan" style="rounded=1;whiteSpace=wrap;html=1;shadow=0;comic=0;labelBackgroundColor=none;strokeWidth=1;fontFamily=Verdana;fontSize=12;align=center;arcSize=50;" parent="AIw0YnytM_WcK_We3Al_-62" vertex="1">
          <mxGeometry x="100" y="430" width="115" height="40" as="geometry" />
        </mxCell>
        <mxCell id="AIw0YnytM_WcK_We3Al_-73" style="edgeStyle=orthogonalEdgeStyle;rounded=0;orthogonalLoop=1;jettySize=auto;html=1;entryX=0.5;entryY=0;entryDx=0;entryDy=0;" parent="AIw0YnytM_WcK_We3Al_-62" source="AIw0YnytM_WcK_We3Al_-74" target="AIw0YnytM_WcK_We3Al_-75" edge="1">
          <mxGeometry relative="1" as="geometry" />
        </mxCell>
        <mxCell id="AIw0YnytM_WcK_We3Al_-74" value="Tampilkan Halaman Kategori Produk" style="rounded=1;whiteSpace=wrap;html=1;shadow=0;comic=0;labelBackgroundColor=none;strokeWidth=1;fontFamily=Verdana;fontSize=12;align=center;arcSize=50;" parent="AIw0YnytM_WcK_We3Al_-62" vertex="1">
          <mxGeometry x="40" y="480" width="142.5" height="40" as="geometry" />
        </mxCell>
        <mxCell id="AIw0YnytM_WcK_We3Al_-75" value="" style="shape=mxgraph.bpmn.shape;html=1;verticalLabelPosition=bottom;labelBackgroundColor=#ffffff;verticalAlign=top;perimeter=ellipsePerimeter;outline=end;symbol=terminate;rounded=0;shadow=0;comic=0;strokeWidth=1;fontFamily=Verdana;fontSize=12;align=center;" parent="AIw0YnytM_WcK_We3Al_-62" vertex="1">
          <mxGeometry x="91.25" y="540" width="40" height="40" as="geometry" />
        </mxCell>
        <mxCell id="AIw0YnytM_WcK_We3Al_-76" value="Menampilkan Form Ubah Data" style="rounded=1;whiteSpace=wrap;html=1;shadow=0;comic=0;labelBackgroundColor=none;strokeWidth=1;fontFamily=Verdana;fontSize=12;align=center;arcSize=50;" parent="AIw0YnytM_WcK_We3Al_-62" vertex="1">
          <mxGeometry x="58.75" y="180" width="132.5" height="40" as="geometry" />
        </mxCell>
        <mxCell id="AIw0YnytM_WcK_We3Al_-77" style="edgeStyle=orthogonalEdgeStyle;rounded=0;orthogonalLoop=1;jettySize=auto;html=1;" parent="AIw0YnytM_WcK_We3Al_-55" source="AIw0YnytM_WcK_We3Al_-58" target="AIw0YnytM_WcK_We3Al_-63" edge="1">
          <mxGeometry relative="1" as="geometry">
            <mxPoint x="325" y="140" as="targetPoint" />
          </mxGeometry>
        </mxCell>
        <mxCell id="AIw0YnytM_WcK_We3Al_-78" style="edgeStyle=orthogonalEdgeStyle;rounded=0;orthogonalLoop=1;jettySize=auto;html=1;" parent="AIw0YnytM_WcK_We3Al_-55" source="AIw0YnytM_WcK_We3Al_-63" target="AIw0YnytM_WcK_We3Al_-60" edge="1">
          <mxGeometry relative="1" as="geometry">
            <mxPoint x="370.0588235294117" y="155" as="sourcePoint" />
            <Array as="points">
              <mxPoint x="370" y="180" />
              <mxPoint x="125" y="180" />
            </Array>
          </mxGeometry>
        </mxCell>
        <mxCell id="AIw0YnytM_WcK_We3Al_-80" style="edgeStyle=orthogonalEdgeStyle;rounded=0;orthogonalLoop=1;jettySize=auto;html=1;" parent="AIw0YnytM_WcK_We3Al_-55" source="AIw0YnytM_WcK_We3Al_-60" target="AIw0YnytM_WcK_We3Al_-76" edge="1">
          <mxGeometry relative="1" as="geometry">
            <mxPoint x="97.47058823529414" y="269.9999999999998" as="targetPoint" />
          </mxGeometry>
        </mxCell>
        <mxCell id="AIw0YnytM_WcK_We3Al_-81" style="edgeStyle=orthogonalEdgeStyle;rounded=0;orthogonalLoop=1;jettySize=auto;html=1;" parent="AIw0YnytM_WcK_We3Al_-55" source="AIw0YnytM_WcK_We3Al_-76" target="AIw0YnytM_WcK_We3Al_-61" edge="1">
          <mxGeometry relative="1" as="geometry">
            <Array as="points">
              <mxPoint x="375" y="250" />
              <mxPoint x="70" y="250" />
            </Array>
          </mxGeometry>
        </mxCell>
        <mxCell id="Ftfzk--W6nuzLrWudvyC-7" style="edgeStyle=orthogonalEdgeStyle;rounded=0;orthogonalLoop=1;jettySize=auto;html=1;" parent="AIw0YnytM_WcK_We3Al_-55" source="Ftfzk--W6nuzLrWudvyC-6" target="AIw0YnytM_WcK_We3Al_-65" edge="1">
          <mxGeometry relative="1" as="geometry" />
        </mxCell>
        <mxCell id="AIw0YnytM_WcK_We3Al_-82" value="Tambah Data Kategori Produk" style="swimlane;html=1;childLayout=stackLayout;startSize=20;rounded=0;shadow=0;comic=0;labelBackgroundColor=none;strokeWidth=1;fontFamily=Verdana;fontSize=12;align=center;" parent="1" vertex="1">
          <mxGeometry x="40" y="1340" width="500" height="620" as="geometry">
            <mxRectangle x="40" y="20" width="70" height="30" as="alternateBounds" />
          </mxGeometry>
        </mxCell>
        <mxCell id="AIw0YnytM_WcK_We3Al_-83" value="User (Super, Admin)" style="swimlane;html=1;startSize=20;" parent="AIw0YnytM_WcK_We3Al_-82" vertex="1">
          <mxGeometry y="20" width="250" height="600" as="geometry" />
        </mxCell>
        <mxCell id="AIw0YnytM_WcK_We3Al_-84" value="" style="ellipse;whiteSpace=wrap;html=1;rounded=0;shadow=0;comic=0;labelBackgroundColor=none;strokeWidth=1;fillColor=#000000;fontFamily=Verdana;fontSize=12;align=center;" parent="AIw0YnytM_WcK_We3Al_-83" vertex="1">
          <mxGeometry x="105" y="40" width="40" height="40" as="geometry" />
        </mxCell>
        <mxCell id="AIw0YnytM_WcK_We3Al_-85" value="Mengakses Halaman Kategori Produk" style="rounded=1;whiteSpace=wrap;html=1;shadow=0;comic=0;labelBackgroundColor=none;strokeWidth=1;fontFamily=Verdana;fontSize=12;align=center;arcSize=50;" parent="AIw0YnytM_WcK_We3Al_-83" vertex="1">
          <mxGeometry x="53.75" y="100" width="142.5" height="40" as="geometry" />
        </mxCell>
        <mxCell id="AIw0YnytM_WcK_We3Al_-86" style="edgeStyle=orthogonalEdgeStyle;rounded=0;html=1;labelBackgroundColor=none;startArrow=none;startFill=0;startSize=5;endArrow=classicThin;endFill=1;endSize=5;jettySize=auto;orthogonalLoop=1;strokeWidth=1;fontFamily=Verdana;fontSize=12" parent="AIw0YnytM_WcK_We3Al_-83" source="AIw0YnytM_WcK_We3Al_-84" target="AIw0YnytM_WcK_We3Al_-85" edge="1">
          <mxGeometry relative="1" as="geometry" />
        </mxCell>
        <mxCell id="AIw0YnytM_WcK_We3Al_-87" value="Klik Tombol Tambah Data" style="rounded=1;whiteSpace=wrap;html=1;shadow=0;comic=0;labelBackgroundColor=none;strokeWidth=1;fontFamily=Verdana;fontSize=12;align=center;arcSize=50;" parent="AIw0YnytM_WcK_We3Al_-83" vertex="1">
          <mxGeometry x="67.5" y="160" width="115" height="40" as="geometry" />
        </mxCell>
        <mxCell id="AIw0YnytM_WcK_We3Al_-88" value="Mengisi Form Tambah Data" style="rounded=1;whiteSpace=wrap;html=1;shadow=0;comic=0;labelBackgroundColor=none;strokeWidth=1;fontFamily=Verdana;fontSize=12;align=center;arcSize=50;" parent="AIw0YnytM_WcK_We3Al_-83" vertex="1">
          <mxGeometry x="67.5" y="230" width="115" height="40" as="geometry" />
        </mxCell>
        <mxCell id="Ftfzk--W6nuzLrWudvyC-9" value="Klik Tombol Tambah Data" style="rounded=1;whiteSpace=wrap;html=1;shadow=0;comic=0;labelBackgroundColor=none;strokeWidth=1;fontFamily=Verdana;fontSize=12;align=center;arcSize=50;" parent="AIw0YnytM_WcK_We3Al_-83" vertex="1">
          <mxGeometry x="67.5" y="290" width="115" height="40" as="geometry" />
        </mxCell>
        <mxCell id="AIw0YnytM_WcK_We3Al_-108" style="edgeStyle=orthogonalEdgeStyle;rounded=0;orthogonalLoop=1;jettySize=auto;html=1;" parent="AIw0YnytM_WcK_We3Al_-83" source="AIw0YnytM_WcK_We3Al_-88" target="Ftfzk--W6nuzLrWudvyC-9" edge="1">
          <mxGeometry relative="1" as="geometry">
            <Array as="points" />
          </mxGeometry>
        </mxCell>
        <mxCell id="AIw0YnytM_WcK_We3Al_-89" value="Sistem" style="swimlane;html=1;startSize=20;" parent="AIw0YnytM_WcK_We3Al_-82" vertex="1">
          <mxGeometry x="250" y="20" width="250" height="600" as="geometry" />
        </mxCell>
        <mxCell id="AIw0YnytM_WcK_We3Al_-90" value="Menampilkan daftar data Kategori Produk" style="rounded=1;whiteSpace=wrap;html=1;shadow=0;comic=0;labelBackgroundColor=none;strokeWidth=1;fontFamily=Verdana;fontSize=12;align=center;arcSize=50;" parent="AIw0YnytM_WcK_We3Al_-89" vertex="1">
          <mxGeometry x="58.75" y="100" width="132.5" height="40" as="geometry" />
        </mxCell>
        <mxCell id="AIw0YnytM_WcK_We3Al_-91" value="Menampilkan Form Tambah Data" style="rounded=1;whiteSpace=wrap;html=1;shadow=0;comic=0;labelBackgroundColor=none;strokeWidth=1;fontFamily=Verdana;fontSize=12;align=center;arcSize=50;" parent="AIw0YnytM_WcK_We3Al_-89" vertex="1">
          <mxGeometry x="58.75" y="200" width="132.5" height="40" as="geometry" />
        </mxCell>
        <mxCell id="AIw0YnytM_WcK_We3Al_-92" style="edgeStyle=orthogonalEdgeStyle;rounded=0;orthogonalLoop=1;jettySize=auto;html=1;" parent="AIw0YnytM_WcK_We3Al_-89" source="AIw0YnytM_WcK_We3Al_-96" target="AIw0YnytM_WcK_We3Al_-98" edge="1">
          <mxGeometry relative="1" as="geometry">
            <Array as="points">
              <mxPoint x="167" y="395" />
            </Array>
          </mxGeometry>
        </mxCell>
        <mxCell id="AIw0YnytM_WcK_We3Al_-93" value="False" style="edgeLabel;html=1;align=center;verticalAlign=middle;resizable=0;points=[];" parent="AIw0YnytM_WcK_We3Al_-92" vertex="1" connectable="0">
          <mxGeometry x="-0.0605" y="2" relative="1" as="geometry">
            <mxPoint x="22" y="2" as="offset" />
          </mxGeometry>
        </mxCell>
        <mxCell id="AIw0YnytM_WcK_We3Al_-94" style="edgeStyle=orthogonalEdgeStyle;rounded=0;orthogonalLoop=1;jettySize=auto;html=1;" parent="AIw0YnytM_WcK_We3Al_-89" source="AIw0YnytM_WcK_We3Al_-96" target="AIw0YnytM_WcK_We3Al_-100" edge="1">
          <mxGeometry relative="1" as="geometry">
            <Array as="points">
              <mxPoint x="20" y="395" />
              <mxPoint x="20" y="500" />
            </Array>
          </mxGeometry>
        </mxCell>
        <mxCell id="AIw0YnytM_WcK_We3Al_-95" value="True" style="edgeLabel;html=1;align=center;verticalAlign=middle;resizable=0;points=[];" parent="AIw0YnytM_WcK_We3Al_-94" vertex="1" connectable="0">
          <mxGeometry x="0.1515" y="-4" relative="1" as="geometry">
            <mxPoint as="offset" />
          </mxGeometry>
        </mxCell>
        <mxCell id="AIw0YnytM_WcK_We3Al_-96" value="Valid?" style="points=[[0.25,0.25,0],[0.5,0,0],[0.75,0.25,0],[1,0.5,0],[0.75,0.75,0],[0.5,1,0],[0.25,0.75,0],[0,0.5,0]];shape=mxgraph.bpmn.gateway2;html=1;verticalLabelPosition=bottom;labelBackgroundColor=#ffffff;verticalAlign=top;align=center;perimeter=rhombusPerimeter;outlineConnect=0;outline=none;symbol=none;rotation=0;" parent="AIw0YnytM_WcK_We3Al_-89" vertex="1">
          <mxGeometry x="50.000000000000114" y="370" width="50" height="50" as="geometry" />
        </mxCell>
        <mxCell id="AIw0YnytM_WcK_We3Al_-97" style="edgeStyle=orthogonalEdgeStyle;rounded=0;orthogonalLoop=1;jettySize=auto;html=1;" parent="AIw0YnytM_WcK_We3Al_-89" source="AIw0YnytM_WcK_We3Al_-98" target="AIw0YnytM_WcK_We3Al_-91" edge="1">
          <mxGeometry relative="1" as="geometry">
            <Array as="points">
              <mxPoint x="230" y="440" />
              <mxPoint x="230" y="220" />
            </Array>
          </mxGeometry>
        </mxCell>
        <mxCell id="AIw0YnytM_WcK_We3Al_-98" value="Menampilkan Pesan Kesalahan" style="rounded=1;whiteSpace=wrap;html=1;shadow=0;comic=0;labelBackgroundColor=none;strokeWidth=1;fontFamily=Verdana;fontSize=12;align=center;arcSize=50;" parent="AIw0YnytM_WcK_We3Al_-89" vertex="1">
          <mxGeometry x="100" y="430" width="115" height="40" as="geometry" />
        </mxCell>
        <mxCell id="AIw0YnytM_WcK_We3Al_-99" style="edgeStyle=orthogonalEdgeStyle;rounded=0;orthogonalLoop=1;jettySize=auto;html=1;entryX=0.5;entryY=0;entryDx=0;entryDy=0;" parent="AIw0YnytM_WcK_We3Al_-89" source="AIw0YnytM_WcK_We3Al_-100" target="AIw0YnytM_WcK_We3Al_-101" edge="1">
          <mxGeometry relative="1" as="geometry" />
        </mxCell>
        <mxCell id="AIw0YnytM_WcK_We3Al_-100" value="Tampilkan Halaman Kategori Produk" style="rounded=1;whiteSpace=wrap;html=1;shadow=0;comic=0;labelBackgroundColor=none;strokeWidth=1;fontFamily=Verdana;fontSize=12;align=center;arcSize=50;" parent="AIw0YnytM_WcK_We3Al_-89" vertex="1">
          <mxGeometry x="40" y="480" width="142.5" height="40" as="geometry" />
        </mxCell>
        <mxCell id="AIw0YnytM_WcK_We3Al_-101" value="" style="shape=mxgraph.bpmn.shape;html=1;verticalLabelPosition=bottom;labelBackgroundColor=#ffffff;verticalAlign=top;perimeter=ellipsePerimeter;outline=end;symbol=terminate;rounded=0;shadow=0;comic=0;strokeWidth=1;fontFamily=Verdana;fontSize=12;align=center;" parent="AIw0YnytM_WcK_We3Al_-89" vertex="1">
          <mxGeometry x="91.25" y="540" width="40" height="40" as="geometry" />
        </mxCell>
        <mxCell id="AIw0YnytM_WcK_We3Al_-102" style="edgeStyle=orthogonalEdgeStyle;rounded=0;orthogonalLoop=1;jettySize=auto;html=1;" parent="AIw0YnytM_WcK_We3Al_-89" source="AIw0YnytM_WcK_We3Al_-103" target="AIw0YnytM_WcK_We3Al_-96" edge="1">
          <mxGeometry relative="1" as="geometry" />
        </mxCell>
        <mxCell id="AIw0YnytM_WcK_We3Al_-103" value="Validasi input" style="rounded=1;whiteSpace=wrap;html=1;shadow=0;comic=0;labelBackgroundColor=none;strokeWidth=1;fontFamily=Verdana;fontSize=12;align=center;arcSize=50;" parent="AIw0YnytM_WcK_We3Al_-89" vertex="1">
          <mxGeometry x="67.5" y="290" width="115" height="40" as="geometry" />
        </mxCell>
        <mxCell id="AIw0YnytM_WcK_We3Al_-104" style="edgeStyle=orthogonalEdgeStyle;rounded=0;orthogonalLoop=1;jettySize=auto;html=1;" parent="AIw0YnytM_WcK_We3Al_-82" source="AIw0YnytM_WcK_We3Al_-85" target="AIw0YnytM_WcK_We3Al_-90" edge="1">
          <mxGeometry relative="1" as="geometry">
            <mxPoint x="325" y="140" as="targetPoint" />
          </mxGeometry>
        </mxCell>
        <mxCell id="AIw0YnytM_WcK_We3Al_-105" style="edgeStyle=orthogonalEdgeStyle;rounded=0;orthogonalLoop=1;jettySize=auto;html=1;" parent="AIw0YnytM_WcK_We3Al_-82" source="AIw0YnytM_WcK_We3Al_-90" target="AIw0YnytM_WcK_We3Al_-87" edge="1">
          <mxGeometry relative="1" as="geometry">
            <mxPoint x="370.0588235294117" y="155" as="sourcePoint" />
            <Array as="points">
              <mxPoint x="370" y="200" />
            </Array>
          </mxGeometry>
        </mxCell>
        <mxCell id="AIw0YnytM_WcK_We3Al_-106" style="edgeStyle=orthogonalEdgeStyle;rounded=0;orthogonalLoop=1;jettySize=auto;html=1;" parent="AIw0YnytM_WcK_We3Al_-82" source="AIw0YnytM_WcK_We3Al_-87" target="AIw0YnytM_WcK_We3Al_-91" edge="1">
          <mxGeometry relative="1" as="geometry">
            <Array as="points">
              <mxPoint x="125" y="240" />
            </Array>
          </mxGeometry>
        </mxCell>
        <mxCell id="AIw0YnytM_WcK_We3Al_-107" style="edgeStyle=orthogonalEdgeStyle;rounded=0;orthogonalLoop=1;jettySize=auto;html=1;" parent="AIw0YnytM_WcK_We3Al_-82" source="AIw0YnytM_WcK_We3Al_-91" target="AIw0YnytM_WcK_We3Al_-88" edge="1">
          <mxGeometry relative="1" as="geometry">
            <Array as="points">
              <mxPoint x="375" y="270" />
            </Array>
          </mxGeometry>
        </mxCell>
        <mxCell id="Ftfzk--W6nuzLrWudvyC-10" style="edgeStyle=orthogonalEdgeStyle;rounded=0;orthogonalLoop=1;jettySize=auto;html=1;" parent="AIw0YnytM_WcK_We3Al_-82" source="Ftfzk--W6nuzLrWudvyC-9" target="AIw0YnytM_WcK_We3Al_-103" edge="1">
          <mxGeometry relative="1" as="geometry" />
        </mxCell>
        <mxCell id="AIw0YnytM_WcK_We3Al_-109" value="Hapus Data Kategori Produk" style="swimlane;html=1;childLayout=stackLayout;startSize=20;rounded=0;shadow=0;comic=0;labelBackgroundColor=none;strokeWidth=1;fontFamily=Verdana;fontSize=12;align=center;" parent="1" vertex="1">
          <mxGeometry x="1080" y="1340" width="500" height="620" as="geometry">
            <mxRectangle x="40" y="20" width="70" height="30" as="alternateBounds" />
          </mxGeometry>
        </mxCell>
        <mxCell id="AIw0YnytM_WcK_We3Al_-110" value="User (Super, Admin)" style="swimlane;html=1;startSize=20;" parent="AIw0YnytM_WcK_We3Al_-109" vertex="1">
          <mxGeometry y="20" width="250" height="600" as="geometry" />
        </mxCell>
        <mxCell id="AIw0YnytM_WcK_We3Al_-111" value="" style="ellipse;whiteSpace=wrap;html=1;rounded=0;shadow=0;comic=0;labelBackgroundColor=none;strokeWidth=1;fillColor=#000000;fontFamily=Verdana;fontSize=12;align=center;" parent="AIw0YnytM_WcK_We3Al_-110" vertex="1">
          <mxGeometry x="105" y="40" width="40" height="40" as="geometry" />
        </mxCell>
        <mxCell id="AIw0YnytM_WcK_We3Al_-112" value="Mengakses Halaman Kategori Produk" style="rounded=1;whiteSpace=wrap;html=1;shadow=0;comic=0;labelBackgroundColor=none;strokeWidth=1;fontFamily=Verdana;fontSize=12;align=center;arcSize=50;" parent="AIw0YnytM_WcK_We3Al_-110" vertex="1">
          <mxGeometry x="53.75" y="100" width="142.5" height="40" as="geometry" />
        </mxCell>
        <mxCell id="AIw0YnytM_WcK_We3Al_-113" style="edgeStyle=orthogonalEdgeStyle;rounded=0;html=1;labelBackgroundColor=none;startArrow=none;startFill=0;startSize=5;endArrow=classicThin;endFill=1;endSize=5;jettySize=auto;orthogonalLoop=1;strokeWidth=1;fontFamily=Verdana;fontSize=12" parent="AIw0YnytM_WcK_We3Al_-110" source="AIw0YnytM_WcK_We3Al_-111" target="AIw0YnytM_WcK_We3Al_-112" edge="1">
          <mxGeometry relative="1" as="geometry" />
        </mxCell>
        <mxCell id="AIw0YnytM_WcK_We3Al_-114" value="Memilih data dan klik Tombol Hapus" style="rounded=1;whiteSpace=wrap;html=1;shadow=0;comic=0;labelBackgroundColor=none;strokeWidth=1;fontFamily=Verdana;fontSize=12;align=center;arcSize=50;" parent="AIw0YnytM_WcK_We3Al_-110" vertex="1">
          <mxGeometry x="63.75" y="160" width="122.5" height="40" as="geometry" />
        </mxCell>
        <mxCell id="AIw0YnytM_WcK_We3Al_-115" value="Klik tombol OK" style="rounded=1;whiteSpace=wrap;html=1;shadow=0;comic=0;labelBackgroundColor=none;strokeWidth=1;fontFamily=Verdana;fontSize=12;align=center;arcSize=50;" parent="AIw0YnytM_WcK_We3Al_-110" vertex="1">
          <mxGeometry x="67.5" y="240" width="115" height="40" as="geometry" />
        </mxCell>
        <mxCell id="AIw0YnytM_WcK_We3Al_-116" value="Sistem" style="swimlane;html=1;startSize=20;" parent="AIw0YnytM_WcK_We3Al_-109" vertex="1">
          <mxGeometry x="250" y="20" width="250" height="600" as="geometry" />
        </mxCell>
        <mxCell id="AIw0YnytM_WcK_We3Al_-117" value="Menampilkan daftar data Kategori Produk" style="rounded=1;whiteSpace=wrap;html=1;shadow=0;comic=0;labelBackgroundColor=none;strokeWidth=1;fontFamily=Verdana;fontSize=12;align=center;arcSize=50;" parent="AIw0YnytM_WcK_We3Al_-116" vertex="1">
          <mxGeometry x="58.75" y="100" width="132.5" height="40" as="geometry" />
        </mxCell>
        <mxCell id="AIw0YnytM_WcK_We3Al_-118" value="Menampilkan pesan konfirmasi hapus data" style="rounded=1;whiteSpace=wrap;html=1;shadow=0;comic=0;labelBackgroundColor=none;strokeWidth=1;fontFamily=Verdana;fontSize=12;align=center;arcSize=50;" parent="AIw0YnytM_WcK_We3Al_-116" vertex="1">
          <mxGeometry x="49.38" y="200" width="151.25" height="40" as="geometry" />
        </mxCell>
        <mxCell id="AIw0YnytM_WcK_We3Al_-119" style="edgeStyle=orthogonalEdgeStyle;rounded=0;orthogonalLoop=1;jettySize=auto;html=1;exitX=1;exitY=0.5;exitDx=0;exitDy=0;exitPerimeter=0;entryX=1;entryY=0.5;entryDx=0;entryDy=0;" parent="AIw0YnytM_WcK_We3Al_-116" source="AIw0YnytM_WcK_We3Al_-123" target="AIw0YnytM_WcK_We3Al_-128" edge="1">
          <mxGeometry relative="1" as="geometry">
            <Array as="points">
              <mxPoint x="230" y="345" />
              <mxPoint x="230" y="560" />
            </Array>
            <mxPoint x="167" y="420" as="targetPoint" />
          </mxGeometry>
        </mxCell>
        <mxCell id="AIw0YnytM_WcK_We3Al_-120" value="False" style="edgeLabel;html=1;align=center;verticalAlign=middle;resizable=0;points=[];" parent="AIw0YnytM_WcK_We3Al_-119" vertex="1" connectable="0">
          <mxGeometry x="-0.0605" y="2" relative="1" as="geometry">
            <mxPoint x="1" y="-7" as="offset" />
          </mxGeometry>
        </mxCell>
        <mxCell id="AIw0YnytM_WcK_We3Al_-121" style="edgeStyle=orthogonalEdgeStyle;rounded=0;orthogonalLoop=1;jettySize=auto;html=1;entryX=0;entryY=0.5;entryDx=0;entryDy=0;" parent="AIw0YnytM_WcK_We3Al_-116" source="AIw0YnytM_WcK_We3Al_-123" target="AIw0YnytM_WcK_We3Al_-127" edge="1">
          <mxGeometry relative="1" as="geometry">
            <Array as="points">
              <mxPoint x="30" y="345" />
              <mxPoint x="30" y="440" />
            </Array>
          </mxGeometry>
        </mxCell>
        <mxCell id="AIw0YnytM_WcK_We3Al_-122" value="True" style="edgeLabel;html=1;align=center;verticalAlign=middle;resizable=0;points=[];" parent="AIw0YnytM_WcK_We3Al_-121" vertex="1" connectable="0">
          <mxGeometry x="0.1515" y="-4" relative="1" as="geometry">
            <mxPoint as="offset" />
          </mxGeometry>
        </mxCell>
        <mxCell id="AIw0YnytM_WcK_We3Al_-123" value="Valid?" style="points=[[0.25,0.25,0],[0.5,0,0],[0.75,0.25,0],[1,0.5,0],[0.75,0.75,0],[0.5,1,0],[0.25,0.75,0],[0,0.5,0]];shape=mxgraph.bpmn.gateway2;html=1;verticalLabelPosition=bottom;labelBackgroundColor=#ffffff;verticalAlign=top;align=center;perimeter=rhombusPerimeter;outlineConnect=0;outline=none;symbol=none;rotation=0;" parent="AIw0YnytM_WcK_We3Al_-116" vertex="1">
          <mxGeometry x="100.00000000000011" y="320" width="50" height="50" as="geometry" />
        </mxCell>
        <mxCell id="AIw0YnytM_WcK_We3Al_-126" style="edgeStyle=orthogonalEdgeStyle;rounded=0;orthogonalLoop=1;jettySize=auto;html=1;entryX=0.5;entryY=0;entryDx=0;entryDy=0;" parent="AIw0YnytM_WcK_We3Al_-116" source="AIw0YnytM_WcK_We3Al_-127" target="AIw0YnytM_WcK_We3Al_-128" edge="1">
          <mxGeometry relative="1" as="geometry" />
        </mxCell>
        <mxCell id="AIw0YnytM_WcK_We3Al_-127" value="Hapus data terpilih" style="rounded=1;whiteSpace=wrap;html=1;shadow=0;comic=0;labelBackgroundColor=none;strokeWidth=1;fontFamily=Verdana;fontSize=12;align=center;arcSize=50;" parent="AIw0YnytM_WcK_We3Al_-116" vertex="1">
          <mxGeometry x="53.75" y="420" width="142.5" height="40" as="geometry" />
        </mxCell>
        <mxCell id="AIw0YnytM_WcK_We3Al_-128" value="" style="shape=mxgraph.bpmn.shape;html=1;verticalLabelPosition=bottom;labelBackgroundColor=#ffffff;verticalAlign=top;perimeter=ellipsePerimeter;outline=end;symbol=terminate;rounded=0;shadow=0;comic=0;strokeWidth=1;fontFamily=Verdana;fontSize=12;align=center;" parent="AIw0YnytM_WcK_We3Al_-116" vertex="1">
          <mxGeometry x="105" y="540" width="40" height="40" as="geometry" />
        </mxCell>
        <mxCell id="AIw0YnytM_WcK_We3Al_-131" style="edgeStyle=orthogonalEdgeStyle;rounded=0;orthogonalLoop=1;jettySize=auto;html=1;" parent="AIw0YnytM_WcK_We3Al_-109" source="AIw0YnytM_WcK_We3Al_-112" target="AIw0YnytM_WcK_We3Al_-117" edge="1">
          <mxGeometry relative="1" as="geometry">
            <mxPoint x="325" y="140" as="targetPoint" />
          </mxGeometry>
        </mxCell>
        <mxCell id="AIw0YnytM_WcK_We3Al_-132" style="edgeStyle=orthogonalEdgeStyle;rounded=0;orthogonalLoop=1;jettySize=auto;html=1;" parent="AIw0YnytM_WcK_We3Al_-109" source="AIw0YnytM_WcK_We3Al_-117" target="AIw0YnytM_WcK_We3Al_-114" edge="1">
          <mxGeometry relative="1" as="geometry">
            <mxPoint x="370.0588235294117" y="155" as="sourcePoint" />
            <Array as="points">
              <mxPoint x="370" y="200" />
            </Array>
          </mxGeometry>
        </mxCell>
        <mxCell id="AIw0YnytM_WcK_We3Al_-133" style="edgeStyle=orthogonalEdgeStyle;rounded=0;orthogonalLoop=1;jettySize=auto;html=1;" parent="AIw0YnytM_WcK_We3Al_-109" source="AIw0YnytM_WcK_We3Al_-114" target="AIw0YnytM_WcK_We3Al_-118" edge="1">
          <mxGeometry relative="1" as="geometry">
            <Array as="points">
              <mxPoint x="125" y="240" />
            </Array>
          </mxGeometry>
        </mxCell>
        <mxCell id="AIw0YnytM_WcK_We3Al_-134" style="edgeStyle=orthogonalEdgeStyle;rounded=0;orthogonalLoop=1;jettySize=auto;html=1;" parent="AIw0YnytM_WcK_We3Al_-109" source="AIw0YnytM_WcK_We3Al_-118" target="AIw0YnytM_WcK_We3Al_-115" edge="1">
          <mxGeometry relative="1" as="geometry">
            <Array as="points">
              <mxPoint x="375" y="280" />
            </Array>
          </mxGeometry>
        </mxCell>
        <mxCell id="AIw0YnytM_WcK_We3Al_-135" style="edgeStyle=orthogonalEdgeStyle;rounded=0;orthogonalLoop=1;jettySize=auto;html=1;entryX=0.5;entryY=0;entryDx=0;entryDy=0;entryPerimeter=0;" parent="AIw0YnytM_WcK_We3Al_-109" source="AIw0YnytM_WcK_We3Al_-115" target="AIw0YnytM_WcK_We3Al_-123" edge="1">
          <mxGeometry relative="1" as="geometry">
            <Array as="points">
              <mxPoint x="125" y="320" />
            </Array>
            <mxPoint x="317.5" y="320" as="targetPoint" />
          </mxGeometry>
        </mxCell>
        <mxCell id="AIw0YnytM_WcK_We3Al_-191" value="Hapus Data Produk" style="swimlane;html=1;childLayout=stackLayout;startSize=20;rounded=0;shadow=0;comic=0;labelBackgroundColor=none;strokeWidth=1;fontFamily=Verdana;fontSize=12;align=center;" parent="1" vertex="1">
          <mxGeometry x="1080" y="2000" width="500" height="620" as="geometry">
            <mxRectangle x="40" y="20" width="70" height="30" as="alternateBounds" />
          </mxGeometry>
        </mxCell>
        <mxCell id="AIw0YnytM_WcK_We3Al_-192" value="User (Super, Admin)" style="swimlane;html=1;startSize=20;" parent="AIw0YnytM_WcK_We3Al_-191" vertex="1">
          <mxGeometry y="20" width="250" height="600" as="geometry" />
        </mxCell>
        <mxCell id="AIw0YnytM_WcK_We3Al_-193" value="" style="ellipse;whiteSpace=wrap;html=1;rounded=0;shadow=0;comic=0;labelBackgroundColor=none;strokeWidth=1;fillColor=#000000;fontFamily=Verdana;fontSize=12;align=center;" parent="AIw0YnytM_WcK_We3Al_-192" vertex="1">
          <mxGeometry x="105" y="40" width="40" height="40" as="geometry" />
        </mxCell>
        <mxCell id="AIw0YnytM_WcK_We3Al_-194" value="Mengakses Halaman Daftar Produk" style="rounded=1;whiteSpace=wrap;html=1;shadow=0;comic=0;labelBackgroundColor=none;strokeWidth=1;fontFamily=Verdana;fontSize=12;align=center;arcSize=50;" parent="AIw0YnytM_WcK_We3Al_-192" vertex="1">
          <mxGeometry x="53.75" y="100" width="142.5" height="40" as="geometry" />
        </mxCell>
        <mxCell id="AIw0YnytM_WcK_We3Al_-195" style="edgeStyle=orthogonalEdgeStyle;rounded=0;html=1;labelBackgroundColor=none;startArrow=none;startFill=0;startSize=5;endArrow=classicThin;endFill=1;endSize=5;jettySize=auto;orthogonalLoop=1;strokeWidth=1;fontFamily=Verdana;fontSize=12" parent="AIw0YnytM_WcK_We3Al_-192" source="AIw0YnytM_WcK_We3Al_-193" target="AIw0YnytM_WcK_We3Al_-194" edge="1">
          <mxGeometry relative="1" as="geometry" />
        </mxCell>
        <mxCell id="AIw0YnytM_WcK_We3Al_-196" value="Memilih data dan klik Tombol Hapus" style="rounded=1;whiteSpace=wrap;html=1;shadow=0;comic=0;labelBackgroundColor=none;strokeWidth=1;fontFamily=Verdana;fontSize=12;align=center;arcSize=50;" parent="AIw0YnytM_WcK_We3Al_-192" vertex="1">
          <mxGeometry x="63.75" y="160" width="122.5" height="40" as="geometry" />
        </mxCell>
        <mxCell id="AIw0YnytM_WcK_We3Al_-197" value="Klik tombol OK" style="rounded=1;whiteSpace=wrap;html=1;shadow=0;comic=0;labelBackgroundColor=none;strokeWidth=1;fontFamily=Verdana;fontSize=12;align=center;arcSize=50;" parent="AIw0YnytM_WcK_We3Al_-192" vertex="1">
          <mxGeometry x="67.5" y="240" width="115" height="40" as="geometry" />
        </mxCell>
        <mxCell id="AIw0YnytM_WcK_We3Al_-198" value="Sistem" style="swimlane;html=1;startSize=20;" parent="AIw0YnytM_WcK_We3Al_-191" vertex="1">
          <mxGeometry x="250" y="20" width="250" height="600" as="geometry" />
        </mxCell>
        <mxCell id="AIw0YnytM_WcK_We3Al_-199" value="Menampilkan daftar data Produk" style="rounded=1;whiteSpace=wrap;html=1;shadow=0;comic=0;labelBackgroundColor=none;strokeWidth=1;fontFamily=Verdana;fontSize=12;align=center;arcSize=50;" parent="AIw0YnytM_WcK_We3Al_-198" vertex="1">
          <mxGeometry x="58.75" y="100" width="132.5" height="40" as="geometry" />
        </mxCell>
        <mxCell id="AIw0YnytM_WcK_We3Al_-200" value="Menampilkan pesan konfirmasi hapus data" style="rounded=1;whiteSpace=wrap;html=1;shadow=0;comic=0;labelBackgroundColor=none;strokeWidth=1;fontFamily=Verdana;fontSize=12;align=center;arcSize=50;" parent="AIw0YnytM_WcK_We3Al_-198" vertex="1">
          <mxGeometry x="49.38" y="200" width="151.25" height="40" as="geometry" />
        </mxCell>
        <mxCell id="AIw0YnytM_WcK_We3Al_-201" style="edgeStyle=orthogonalEdgeStyle;rounded=0;orthogonalLoop=1;jettySize=auto;html=1;exitX=1;exitY=0.5;exitDx=0;exitDy=0;exitPerimeter=0;entryX=1;entryY=0.5;entryDx=0;entryDy=0;" parent="AIw0YnytM_WcK_We3Al_-198" source="AIw0YnytM_WcK_We3Al_-205" target="AIw0YnytM_WcK_We3Al_-208" edge="1">
          <mxGeometry relative="1" as="geometry">
            <Array as="points">
              <mxPoint x="230" y="345" />
              <mxPoint x="230" y="560" />
            </Array>
            <mxPoint x="167" y="420" as="targetPoint" />
          </mxGeometry>
        </mxCell>
        <mxCell id="AIw0YnytM_WcK_We3Al_-202" value="False" style="edgeLabel;html=1;align=center;verticalAlign=middle;resizable=0;points=[];" parent="AIw0YnytM_WcK_We3Al_-201" vertex="1" connectable="0">
          <mxGeometry x="-0.0605" y="2" relative="1" as="geometry">
            <mxPoint x="1" y="-7" as="offset" />
          </mxGeometry>
        </mxCell>
        <mxCell id="AIw0YnytM_WcK_We3Al_-203" style="edgeStyle=orthogonalEdgeStyle;rounded=0;orthogonalLoop=1;jettySize=auto;html=1;entryX=0;entryY=0.5;entryDx=0;entryDy=0;" parent="AIw0YnytM_WcK_We3Al_-198" source="AIw0YnytM_WcK_We3Al_-205" target="AIw0YnytM_WcK_We3Al_-207" edge="1">
          <mxGeometry relative="1" as="geometry">
            <Array as="points">
              <mxPoint x="30" y="345" />
              <mxPoint x="30" y="440" />
            </Array>
          </mxGeometry>
        </mxCell>
        <mxCell id="AIw0YnytM_WcK_We3Al_-204" value="True" style="edgeLabel;html=1;align=center;verticalAlign=middle;resizable=0;points=[];" parent="AIw0YnytM_WcK_We3Al_-203" vertex="1" connectable="0">
          <mxGeometry x="0.1515" y="-4" relative="1" as="geometry">
            <mxPoint as="offset" />
          </mxGeometry>
        </mxCell>
        <mxCell id="AIw0YnytM_WcK_We3Al_-205" value="Valid?" style="points=[[0.25,0.25,0],[0.5,0,0],[0.75,0.25,0],[1,0.5,0],[0.75,0.75,0],[0.5,1,0],[0.25,0.75,0],[0,0.5,0]];shape=mxgraph.bpmn.gateway2;html=1;verticalLabelPosition=bottom;labelBackgroundColor=#ffffff;verticalAlign=top;align=center;perimeter=rhombusPerimeter;outlineConnect=0;outline=none;symbol=none;rotation=0;" parent="AIw0YnytM_WcK_We3Al_-198" vertex="1">
          <mxGeometry x="100.00000000000011" y="320" width="50" height="50" as="geometry" />
        </mxCell>
        <mxCell id="AIw0YnytM_WcK_We3Al_-206" style="edgeStyle=orthogonalEdgeStyle;rounded=0;orthogonalLoop=1;jettySize=auto;html=1;entryX=0.5;entryY=0;entryDx=0;entryDy=0;" parent="AIw0YnytM_WcK_We3Al_-198" source="AIw0YnytM_WcK_We3Al_-207" target="AIw0YnytM_WcK_We3Al_-208" edge="1">
          <mxGeometry relative="1" as="geometry" />
        </mxCell>
        <mxCell id="AIw0YnytM_WcK_We3Al_-207" value="Hapus data terpilih" style="rounded=1;whiteSpace=wrap;html=1;shadow=0;comic=0;labelBackgroundColor=none;strokeWidth=1;fontFamily=Verdana;fontSize=12;align=center;arcSize=50;" parent="AIw0YnytM_WcK_We3Al_-198" vertex="1">
          <mxGeometry x="53.75" y="420" width="142.5" height="40" as="geometry" />
        </mxCell>
        <mxCell id="AIw0YnytM_WcK_We3Al_-208" value="" style="shape=mxgraph.bpmn.shape;html=1;verticalLabelPosition=bottom;labelBackgroundColor=#ffffff;verticalAlign=top;perimeter=ellipsePerimeter;outline=end;symbol=terminate;rounded=0;shadow=0;comic=0;strokeWidth=1;fontFamily=Verdana;fontSize=12;align=center;" parent="AIw0YnytM_WcK_We3Al_-198" vertex="1">
          <mxGeometry x="105" y="540" width="40" height="40" as="geometry" />
        </mxCell>
        <mxCell id="AIw0YnytM_WcK_We3Al_-209" style="edgeStyle=orthogonalEdgeStyle;rounded=0;orthogonalLoop=1;jettySize=auto;html=1;" parent="AIw0YnytM_WcK_We3Al_-191" source="AIw0YnytM_WcK_We3Al_-194" target="AIw0YnytM_WcK_We3Al_-199" edge="1">
          <mxGeometry relative="1" as="geometry">
            <mxPoint x="325" y="140" as="targetPoint" />
          </mxGeometry>
        </mxCell>
        <mxCell id="AIw0YnytM_WcK_We3Al_-210" style="edgeStyle=orthogonalEdgeStyle;rounded=0;orthogonalLoop=1;jettySize=auto;html=1;" parent="AIw0YnytM_WcK_We3Al_-191" source="AIw0YnytM_WcK_We3Al_-199" target="AIw0YnytM_WcK_We3Al_-196" edge="1">
          <mxGeometry relative="1" as="geometry">
            <mxPoint x="370.0588235294117" y="155" as="sourcePoint" />
            <Array as="points">
              <mxPoint x="370" y="200" />
            </Array>
          </mxGeometry>
        </mxCell>
        <mxCell id="AIw0YnytM_WcK_We3Al_-211" style="edgeStyle=orthogonalEdgeStyle;rounded=0;orthogonalLoop=1;jettySize=auto;html=1;" parent="AIw0YnytM_WcK_We3Al_-191" source="AIw0YnytM_WcK_We3Al_-196" target="AIw0YnytM_WcK_We3Al_-200" edge="1">
          <mxGeometry relative="1" as="geometry">
            <Array as="points">
              <mxPoint x="125" y="240" />
            </Array>
          </mxGeometry>
        </mxCell>
        <mxCell id="AIw0YnytM_WcK_We3Al_-212" style="edgeStyle=orthogonalEdgeStyle;rounded=0;orthogonalLoop=1;jettySize=auto;html=1;" parent="AIw0YnytM_WcK_We3Al_-191" source="AIw0YnytM_WcK_We3Al_-200" target="AIw0YnytM_WcK_We3Al_-197" edge="1">
          <mxGeometry relative="1" as="geometry">
            <Array as="points">
              <mxPoint x="375" y="280" />
            </Array>
          </mxGeometry>
        </mxCell>
        <mxCell id="AIw0YnytM_WcK_We3Al_-213" style="edgeStyle=orthogonalEdgeStyle;rounded=0;orthogonalLoop=1;jettySize=auto;html=1;entryX=0.5;entryY=0;entryDx=0;entryDy=0;entryPerimeter=0;" parent="AIw0YnytM_WcK_We3Al_-191" source="AIw0YnytM_WcK_We3Al_-197" target="AIw0YnytM_WcK_We3Al_-205" edge="1">
          <mxGeometry relative="1" as="geometry">
            <Array as="points">
              <mxPoint x="125" y="320" />
            </Array>
            <mxPoint x="317.5" y="320" as="targetPoint" />
          </mxGeometry>
        </mxCell>
        <mxCell id="Ftfzk--W6nuzLrWudvyC-11" value="Ubah Data Produk" style="swimlane;html=1;childLayout=stackLayout;startSize=20;rounded=0;shadow=0;comic=0;labelBackgroundColor=none;strokeWidth=1;fontFamily=Verdana;fontSize=12;align=center;" parent="1" vertex="1">
          <mxGeometry x="555" y="2000" width="500" height="620" as="geometry">
            <mxRectangle x="40" y="20" width="70" height="30" as="alternateBounds" />
          </mxGeometry>
        </mxCell>
        <mxCell id="Ftfzk--W6nuzLrWudvyC-12" value="User (Super, Admin)" style="swimlane;html=1;startSize=20;" parent="Ftfzk--W6nuzLrWudvyC-11" vertex="1">
          <mxGeometry y="20" width="250" height="600" as="geometry" />
        </mxCell>
        <mxCell id="Ftfzk--W6nuzLrWudvyC-13" value="" style="ellipse;whiteSpace=wrap;html=1;rounded=0;shadow=0;comic=0;labelBackgroundColor=none;strokeWidth=1;fillColor=#000000;fontFamily=Verdana;fontSize=12;align=center;" parent="Ftfzk--W6nuzLrWudvyC-12" vertex="1">
          <mxGeometry x="105" y="40" width="40" height="40" as="geometry" />
        </mxCell>
        <mxCell id="Ftfzk--W6nuzLrWudvyC-14" value="Mengakses Halaman Produk" style="rounded=1;whiteSpace=wrap;html=1;shadow=0;comic=0;labelBackgroundColor=none;strokeWidth=1;fontFamily=Verdana;fontSize=12;align=center;arcSize=50;" parent="Ftfzk--W6nuzLrWudvyC-12" vertex="1">
          <mxGeometry x="53.75" y="110" width="142.5" height="40" as="geometry" />
        </mxCell>
        <mxCell id="Ftfzk--W6nuzLrWudvyC-15" style="edgeStyle=orthogonalEdgeStyle;rounded=0;html=1;labelBackgroundColor=none;startArrow=none;startFill=0;startSize=5;endArrow=classicThin;endFill=1;endSize=5;jettySize=auto;orthogonalLoop=1;strokeWidth=1;fontFamily=Verdana;fontSize=12" parent="Ftfzk--W6nuzLrWudvyC-12" source="Ftfzk--W6nuzLrWudvyC-13" target="Ftfzk--W6nuzLrWudvyC-14" edge="1">
          <mxGeometry relative="1" as="geometry" />
        </mxCell>
        <mxCell id="Ftfzk--W6nuzLrWudvyC-16" value="Memilih data dan klik Tombol Ubah" style="rounded=1;whiteSpace=wrap;html=1;shadow=0;comic=0;labelBackgroundColor=none;strokeWidth=1;fontFamily=Verdana;fontSize=12;align=center;arcSize=50;" parent="Ftfzk--W6nuzLrWudvyC-12" vertex="1">
          <mxGeometry x="63.75" y="180" width="122.5" height="40" as="geometry" />
        </mxCell>
        <mxCell id="Ftfzk--W6nuzLrWudvyC-17" value="Mengubah isi Form Ubah Data" style="rounded=1;whiteSpace=wrap;html=1;shadow=0;comic=0;labelBackgroundColor=none;strokeWidth=1;fontFamily=Verdana;fontSize=12;align=center;arcSize=50;" parent="Ftfzk--W6nuzLrWudvyC-12" vertex="1">
          <mxGeometry x="10" y="250" width="115" height="40" as="geometry" />
        </mxCell>
        <mxCell id="Ftfzk--W6nuzLrWudvyC-18" value="Klik Tombol Ubah Data" style="rounded=1;whiteSpace=wrap;html=1;shadow=0;comic=0;labelBackgroundColor=none;strokeWidth=1;fontFamily=Verdana;fontSize=12;align=center;arcSize=50;" parent="Ftfzk--W6nuzLrWudvyC-12" vertex="1">
          <mxGeometry x="125" y="290" width="115" height="40" as="geometry" />
        </mxCell>
        <mxCell id="Ftfzk--W6nuzLrWudvyC-19" style="edgeStyle=orthogonalEdgeStyle;rounded=0;orthogonalLoop=1;jettySize=auto;html=1;" parent="Ftfzk--W6nuzLrWudvyC-12" source="Ftfzk--W6nuzLrWudvyC-17" target="Ftfzk--W6nuzLrWudvyC-18" edge="1">
          <mxGeometry relative="1" as="geometry">
            <mxPoint x="155" y="269.9999999999998" as="sourcePoint" />
            <Array as="points">
              <mxPoint x="183" y="270" />
            </Array>
          </mxGeometry>
        </mxCell>
        <mxCell id="Ftfzk--W6nuzLrWudvyC-20" value="Sistem" style="swimlane;html=1;startSize=20;" parent="Ftfzk--W6nuzLrWudvyC-11" vertex="1">
          <mxGeometry x="250" y="20" width="250" height="600" as="geometry" />
        </mxCell>
        <mxCell id="Ftfzk--W6nuzLrWudvyC-21" value="Menampilkan daftar data Produk" style="rounded=1;whiteSpace=wrap;html=1;shadow=0;comic=0;labelBackgroundColor=none;strokeWidth=1;fontFamily=Verdana;fontSize=12;align=center;arcSize=50;" parent="Ftfzk--W6nuzLrWudvyC-20" vertex="1">
          <mxGeometry x="53.75" y="110" width="142.5" height="40" as="geometry" />
        </mxCell>
        <mxCell id="Ftfzk--W6nuzLrWudvyC-22" style="edgeStyle=orthogonalEdgeStyle;rounded=0;orthogonalLoop=1;jettySize=auto;html=1;" parent="Ftfzk--W6nuzLrWudvyC-20" source="Ftfzk--W6nuzLrWudvyC-23" target="Ftfzk--W6nuzLrWudvyC-28" edge="1">
          <mxGeometry relative="1" as="geometry" />
        </mxCell>
        <mxCell id="Ftfzk--W6nuzLrWudvyC-23" value="Validasi input" style="rounded=1;whiteSpace=wrap;html=1;shadow=0;comic=0;labelBackgroundColor=none;strokeWidth=1;fontFamily=Verdana;fontSize=12;align=center;arcSize=50;" parent="Ftfzk--W6nuzLrWudvyC-20" vertex="1">
          <mxGeometry x="100" y="290" width="115" height="40" as="geometry" />
        </mxCell>
        <mxCell id="Ftfzk--W6nuzLrWudvyC-24" style="edgeStyle=orthogonalEdgeStyle;rounded=0;orthogonalLoop=1;jettySize=auto;html=1;" parent="Ftfzk--W6nuzLrWudvyC-20" source="Ftfzk--W6nuzLrWudvyC-28" target="Ftfzk--W6nuzLrWudvyC-30" edge="1">
          <mxGeometry relative="1" as="geometry">
            <Array as="points">
              <mxPoint x="167" y="395" />
            </Array>
          </mxGeometry>
        </mxCell>
        <mxCell id="Ftfzk--W6nuzLrWudvyC-25" value="False" style="edgeLabel;html=1;align=center;verticalAlign=middle;resizable=0;points=[];" parent="Ftfzk--W6nuzLrWudvyC-24" vertex="1" connectable="0">
          <mxGeometry x="-0.0605" y="2" relative="1" as="geometry">
            <mxPoint x="9" y="2" as="offset" />
          </mxGeometry>
        </mxCell>
        <mxCell id="Ftfzk--W6nuzLrWudvyC-26" style="edgeStyle=orthogonalEdgeStyle;rounded=0;orthogonalLoop=1;jettySize=auto;html=1;" parent="Ftfzk--W6nuzLrWudvyC-20" source="Ftfzk--W6nuzLrWudvyC-28" target="Ftfzk--W6nuzLrWudvyC-32" edge="1">
          <mxGeometry relative="1" as="geometry">
            <Array as="points">
              <mxPoint x="20" y="395" />
              <mxPoint x="20" y="500" />
            </Array>
          </mxGeometry>
        </mxCell>
        <mxCell id="Ftfzk--W6nuzLrWudvyC-27" value="True" style="edgeLabel;html=1;align=center;verticalAlign=middle;resizable=0;points=[];" parent="Ftfzk--W6nuzLrWudvyC-26" vertex="1" connectable="0">
          <mxGeometry x="0.1515" y="-4" relative="1" as="geometry">
            <mxPoint as="offset" />
          </mxGeometry>
        </mxCell>
        <mxCell id="Ftfzk--W6nuzLrWudvyC-28" value="Valid?" style="points=[[0.25,0.25,0],[0.5,0,0],[0.75,0.25,0],[1,0.5,0],[0.75,0.75,0],[0.5,1,0],[0.25,0.75,0],[0,0.5,0]];shape=mxgraph.bpmn.gateway2;html=1;verticalLabelPosition=bottom;labelBackgroundColor=#ffffff;verticalAlign=top;align=center;perimeter=rhombusPerimeter;outlineConnect=0;outline=none;symbol=none;rotation=0;" parent="Ftfzk--W6nuzLrWudvyC-20" vertex="1">
          <mxGeometry x="55.000000000000114" y="370" width="50" height="50" as="geometry" />
        </mxCell>
        <mxCell id="Ftfzk--W6nuzLrWudvyC-29" style="edgeStyle=orthogonalEdgeStyle;rounded=0;orthogonalLoop=1;jettySize=auto;html=1;" parent="Ftfzk--W6nuzLrWudvyC-20" source="Ftfzk--W6nuzLrWudvyC-30" target="Ftfzk--W6nuzLrWudvyC-34" edge="1">
          <mxGeometry relative="1" as="geometry">
            <Array as="points">
              <mxPoint x="230" y="450" />
              <mxPoint x="230" y="200" />
            </Array>
          </mxGeometry>
        </mxCell>
        <mxCell id="Ftfzk--W6nuzLrWudvyC-30" value="Menampilkan Pesan Kesalahan" style="rounded=1;whiteSpace=wrap;html=1;shadow=0;comic=0;labelBackgroundColor=none;strokeWidth=1;fontFamily=Verdana;fontSize=12;align=center;arcSize=50;" parent="Ftfzk--W6nuzLrWudvyC-20" vertex="1">
          <mxGeometry x="100" y="430" width="115" height="40" as="geometry" />
        </mxCell>
        <mxCell id="Ftfzk--W6nuzLrWudvyC-31" style="edgeStyle=orthogonalEdgeStyle;rounded=0;orthogonalLoop=1;jettySize=auto;html=1;entryX=0.5;entryY=0;entryDx=0;entryDy=0;" parent="Ftfzk--W6nuzLrWudvyC-20" source="Ftfzk--W6nuzLrWudvyC-32" target="Ftfzk--W6nuzLrWudvyC-33" edge="1">
          <mxGeometry relative="1" as="geometry" />
        </mxCell>
        <mxCell id="Ftfzk--W6nuzLrWudvyC-32" value="Tampilkan Halaman Produk" style="rounded=1;whiteSpace=wrap;html=1;shadow=0;comic=0;labelBackgroundColor=none;strokeWidth=1;fontFamily=Verdana;fontSize=12;align=center;arcSize=50;" parent="Ftfzk--W6nuzLrWudvyC-20" vertex="1">
          <mxGeometry x="40" y="480" width="142.5" height="40" as="geometry" />
        </mxCell>
        <mxCell id="Ftfzk--W6nuzLrWudvyC-33" value="" style="shape=mxgraph.bpmn.shape;html=1;verticalLabelPosition=bottom;labelBackgroundColor=#ffffff;verticalAlign=top;perimeter=ellipsePerimeter;outline=end;symbol=terminate;rounded=0;shadow=0;comic=0;strokeWidth=1;fontFamily=Verdana;fontSize=12;align=center;" parent="Ftfzk--W6nuzLrWudvyC-20" vertex="1">
          <mxGeometry x="91.25" y="540" width="40" height="40" as="geometry" />
        </mxCell>
        <mxCell id="Ftfzk--W6nuzLrWudvyC-34" value="Menampilkan Form Ubah Data" style="rounded=1;whiteSpace=wrap;html=1;shadow=0;comic=0;labelBackgroundColor=none;strokeWidth=1;fontFamily=Verdana;fontSize=12;align=center;arcSize=50;" parent="Ftfzk--W6nuzLrWudvyC-20" vertex="1">
          <mxGeometry x="58.75" y="180" width="132.5" height="40" as="geometry" />
        </mxCell>
        <mxCell id="Ftfzk--W6nuzLrWudvyC-35" style="edgeStyle=orthogonalEdgeStyle;rounded=0;orthogonalLoop=1;jettySize=auto;html=1;" parent="Ftfzk--W6nuzLrWudvyC-11" source="Ftfzk--W6nuzLrWudvyC-14" target="Ftfzk--W6nuzLrWudvyC-21" edge="1">
          <mxGeometry relative="1" as="geometry">
            <mxPoint x="325" y="140" as="targetPoint" />
          </mxGeometry>
        </mxCell>
        <mxCell id="Ftfzk--W6nuzLrWudvyC-36" style="edgeStyle=orthogonalEdgeStyle;rounded=0;orthogonalLoop=1;jettySize=auto;html=1;" parent="Ftfzk--W6nuzLrWudvyC-11" source="Ftfzk--W6nuzLrWudvyC-21" target="Ftfzk--W6nuzLrWudvyC-16" edge="1">
          <mxGeometry relative="1" as="geometry">
            <mxPoint x="370.0588235294117" y="155" as="sourcePoint" />
            <Array as="points">
              <mxPoint x="370" y="180" />
              <mxPoint x="125" y="180" />
            </Array>
          </mxGeometry>
        </mxCell>
        <mxCell id="Ftfzk--W6nuzLrWudvyC-37" style="edgeStyle=orthogonalEdgeStyle;rounded=0;orthogonalLoop=1;jettySize=auto;html=1;" parent="Ftfzk--W6nuzLrWudvyC-11" source="Ftfzk--W6nuzLrWudvyC-16" target="Ftfzk--W6nuzLrWudvyC-34" edge="1">
          <mxGeometry relative="1" as="geometry">
            <mxPoint x="97.47058823529414" y="269.9999999999998" as="targetPoint" />
          </mxGeometry>
        </mxCell>
        <mxCell id="Ftfzk--W6nuzLrWudvyC-38" style="edgeStyle=orthogonalEdgeStyle;rounded=0;orthogonalLoop=1;jettySize=auto;html=1;" parent="Ftfzk--W6nuzLrWudvyC-11" source="Ftfzk--W6nuzLrWudvyC-34" target="Ftfzk--W6nuzLrWudvyC-17" edge="1">
          <mxGeometry relative="1" as="geometry">
            <Array as="points">
              <mxPoint x="375" y="250" />
              <mxPoint x="70" y="250" />
            </Array>
          </mxGeometry>
        </mxCell>
        <mxCell id="Ftfzk--W6nuzLrWudvyC-39" style="edgeStyle=orthogonalEdgeStyle;rounded=0;orthogonalLoop=1;jettySize=auto;html=1;" parent="Ftfzk--W6nuzLrWudvyC-11" source="Ftfzk--W6nuzLrWudvyC-18" target="Ftfzk--W6nuzLrWudvyC-23" edge="1">
          <mxGeometry relative="1" as="geometry" />
        </mxCell>
        <mxCell id="Ftfzk--W6nuzLrWudvyC-40" value="Tambah Data Produk" style="swimlane;html=1;childLayout=stackLayout;startSize=20;rounded=0;shadow=0;comic=0;labelBackgroundColor=none;strokeWidth=1;fontFamily=Verdana;fontSize=12;align=center;" parent="1" vertex="1">
          <mxGeometry x="35" y="2000" width="500" height="620" as="geometry">
            <mxRectangle x="40" y="20" width="70" height="30" as="alternateBounds" />
          </mxGeometry>
        </mxCell>
        <mxCell id="Ftfzk--W6nuzLrWudvyC-41" value="User (Super, Admin)" style="swimlane;html=1;startSize=20;" parent="Ftfzk--W6nuzLrWudvyC-40" vertex="1">
          <mxGeometry y="20" width="250" height="600" as="geometry" />
        </mxCell>
        <mxCell id="Ftfzk--W6nuzLrWudvyC-42" value="" style="ellipse;whiteSpace=wrap;html=1;rounded=0;shadow=0;comic=0;labelBackgroundColor=none;strokeWidth=1;fillColor=#000000;fontFamily=Verdana;fontSize=12;align=center;" parent="Ftfzk--W6nuzLrWudvyC-41" vertex="1">
          <mxGeometry x="105" y="40" width="40" height="40" as="geometry" />
        </mxCell>
        <mxCell id="Ftfzk--W6nuzLrWudvyC-43" value="Mengakses Halaman Produk" style="rounded=1;whiteSpace=wrap;html=1;shadow=0;comic=0;labelBackgroundColor=none;strokeWidth=1;fontFamily=Verdana;fontSize=12;align=center;arcSize=50;" parent="Ftfzk--W6nuzLrWudvyC-41" vertex="1">
          <mxGeometry x="53.75" y="100" width="142.5" height="40" as="geometry" />
        </mxCell>
        <mxCell id="Ftfzk--W6nuzLrWudvyC-44" style="edgeStyle=orthogonalEdgeStyle;rounded=0;html=1;labelBackgroundColor=none;startArrow=none;startFill=0;startSize=5;endArrow=classicThin;endFill=1;endSize=5;jettySize=auto;orthogonalLoop=1;strokeWidth=1;fontFamily=Verdana;fontSize=12" parent="Ftfzk--W6nuzLrWudvyC-41" source="Ftfzk--W6nuzLrWudvyC-42" target="Ftfzk--W6nuzLrWudvyC-43" edge="1">
          <mxGeometry relative="1" as="geometry" />
        </mxCell>
        <mxCell id="Ftfzk--W6nuzLrWudvyC-45" value="Klik Tombol Tambah Data" style="rounded=1;whiteSpace=wrap;html=1;shadow=0;comic=0;labelBackgroundColor=none;strokeWidth=1;fontFamily=Verdana;fontSize=12;align=center;arcSize=50;" parent="Ftfzk--W6nuzLrWudvyC-41" vertex="1">
          <mxGeometry x="67.5" y="160" width="115" height="40" as="geometry" />
        </mxCell>
        <mxCell id="Ftfzk--W6nuzLrWudvyC-46" value="Mengisi Form Tambah Data" style="rounded=1;whiteSpace=wrap;html=1;shadow=0;comic=0;labelBackgroundColor=none;strokeWidth=1;fontFamily=Verdana;fontSize=12;align=center;arcSize=50;" parent="Ftfzk--W6nuzLrWudvyC-41" vertex="1">
          <mxGeometry x="67.5" y="230" width="115" height="40" as="geometry" />
        </mxCell>
        <mxCell id="Ftfzk--W6nuzLrWudvyC-47" value="Klik Tombol Tambah Data" style="rounded=1;whiteSpace=wrap;html=1;shadow=0;comic=0;labelBackgroundColor=none;strokeWidth=1;fontFamily=Verdana;fontSize=12;align=center;arcSize=50;" parent="Ftfzk--W6nuzLrWudvyC-41" vertex="1">
          <mxGeometry x="67.5" y="290" width="115" height="40" as="geometry" />
        </mxCell>
        <mxCell id="Ftfzk--W6nuzLrWudvyC-48" style="edgeStyle=orthogonalEdgeStyle;rounded=0;orthogonalLoop=1;jettySize=auto;html=1;" parent="Ftfzk--W6nuzLrWudvyC-41" source="Ftfzk--W6nuzLrWudvyC-46" target="Ftfzk--W6nuzLrWudvyC-47" edge="1">
          <mxGeometry relative="1" as="geometry">
            <Array as="points" />
          </mxGeometry>
        </mxCell>
        <mxCell id="Ftfzk--W6nuzLrWudvyC-49" value="Sistem" style="swimlane;html=1;startSize=20;" parent="Ftfzk--W6nuzLrWudvyC-40" vertex="1">
          <mxGeometry x="250" y="20" width="250" height="600" as="geometry" />
        </mxCell>
        <mxCell id="Ftfzk--W6nuzLrWudvyC-50" value="Menampilkan daftar data Produk" style="rounded=1;whiteSpace=wrap;html=1;shadow=0;comic=0;labelBackgroundColor=none;strokeWidth=1;fontFamily=Verdana;fontSize=12;align=center;arcSize=50;" parent="Ftfzk--W6nuzLrWudvyC-49" vertex="1">
          <mxGeometry x="58.75" y="100" width="132.5" height="40" as="geometry" />
        </mxCell>
        <mxCell id="Ftfzk--W6nuzLrWudvyC-51" value="Menampilkan Form Tambah Data" style="rounded=1;whiteSpace=wrap;html=1;shadow=0;comic=0;labelBackgroundColor=none;strokeWidth=1;fontFamily=Verdana;fontSize=12;align=center;arcSize=50;" parent="Ftfzk--W6nuzLrWudvyC-49" vertex="1">
          <mxGeometry x="58.75" y="200" width="132.5" height="40" as="geometry" />
        </mxCell>
        <mxCell id="Ftfzk--W6nuzLrWudvyC-52" style="edgeStyle=orthogonalEdgeStyle;rounded=0;orthogonalLoop=1;jettySize=auto;html=1;" parent="Ftfzk--W6nuzLrWudvyC-49" source="Ftfzk--W6nuzLrWudvyC-56" target="Ftfzk--W6nuzLrWudvyC-58" edge="1">
          <mxGeometry relative="1" as="geometry">
            <Array as="points">
              <mxPoint x="167" y="395" />
            </Array>
          </mxGeometry>
        </mxCell>
        <mxCell id="Ftfzk--W6nuzLrWudvyC-53" value="False" style="edgeLabel;html=1;align=center;verticalAlign=middle;resizable=0;points=[];" parent="Ftfzk--W6nuzLrWudvyC-52" vertex="1" connectable="0">
          <mxGeometry x="-0.0605" y="2" relative="1" as="geometry">
            <mxPoint x="22" y="2" as="offset" />
          </mxGeometry>
        </mxCell>
        <mxCell id="Ftfzk--W6nuzLrWudvyC-54" style="edgeStyle=orthogonalEdgeStyle;rounded=0;orthogonalLoop=1;jettySize=auto;html=1;" parent="Ftfzk--W6nuzLrWudvyC-49" source="Ftfzk--W6nuzLrWudvyC-56" target="Ftfzk--W6nuzLrWudvyC-60" edge="1">
          <mxGeometry relative="1" as="geometry">
            <Array as="points">
              <mxPoint x="20" y="395" />
              <mxPoint x="20" y="500" />
            </Array>
          </mxGeometry>
        </mxCell>
        <mxCell id="Ftfzk--W6nuzLrWudvyC-55" value="True" style="edgeLabel;html=1;align=center;verticalAlign=middle;resizable=0;points=[];" parent="Ftfzk--W6nuzLrWudvyC-54" vertex="1" connectable="0">
          <mxGeometry x="0.1515" y="-4" relative="1" as="geometry">
            <mxPoint as="offset" />
          </mxGeometry>
        </mxCell>
        <mxCell id="Ftfzk--W6nuzLrWudvyC-56" value="Valid?" style="points=[[0.25,0.25,0],[0.5,0,0],[0.75,0.25,0],[1,0.5,0],[0.75,0.75,0],[0.5,1,0],[0.25,0.75,0],[0,0.5,0]];shape=mxgraph.bpmn.gateway2;html=1;verticalLabelPosition=bottom;labelBackgroundColor=#ffffff;verticalAlign=top;align=center;perimeter=rhombusPerimeter;outlineConnect=0;outline=none;symbol=none;rotation=0;" parent="Ftfzk--W6nuzLrWudvyC-49" vertex="1">
          <mxGeometry x="50.000000000000114" y="370" width="50" height="50" as="geometry" />
        </mxCell>
        <mxCell id="Ftfzk--W6nuzLrWudvyC-57" style="edgeStyle=orthogonalEdgeStyle;rounded=0;orthogonalLoop=1;jettySize=auto;html=1;" parent="Ftfzk--W6nuzLrWudvyC-49" source="Ftfzk--W6nuzLrWudvyC-58" target="Ftfzk--W6nuzLrWudvyC-51" edge="1">
          <mxGeometry relative="1" as="geometry">
            <Array as="points">
              <mxPoint x="230" y="440" />
              <mxPoint x="230" y="220" />
            </Array>
          </mxGeometry>
        </mxCell>
        <mxCell id="Ftfzk--W6nuzLrWudvyC-58" value="Menampilkan Pesan Kesalahan" style="rounded=1;whiteSpace=wrap;html=1;shadow=0;comic=0;labelBackgroundColor=none;strokeWidth=1;fontFamily=Verdana;fontSize=12;align=center;arcSize=50;" parent="Ftfzk--W6nuzLrWudvyC-49" vertex="1">
          <mxGeometry x="100" y="430" width="115" height="40" as="geometry" />
        </mxCell>
        <mxCell id="Ftfzk--W6nuzLrWudvyC-59" style="edgeStyle=orthogonalEdgeStyle;rounded=0;orthogonalLoop=1;jettySize=auto;html=1;entryX=0.5;entryY=0;entryDx=0;entryDy=0;" parent="Ftfzk--W6nuzLrWudvyC-49" source="Ftfzk--W6nuzLrWudvyC-60" target="Ftfzk--W6nuzLrWudvyC-61" edge="1">
          <mxGeometry relative="1" as="geometry" />
        </mxCell>
        <mxCell id="Ftfzk--W6nuzLrWudvyC-60" value="Tampilkan Halaman Produk" style="rounded=1;whiteSpace=wrap;html=1;shadow=0;comic=0;labelBackgroundColor=none;strokeWidth=1;fontFamily=Verdana;fontSize=12;align=center;arcSize=50;" parent="Ftfzk--W6nuzLrWudvyC-49" vertex="1">
          <mxGeometry x="40" y="480" width="142.5" height="40" as="geometry" />
        </mxCell>
        <mxCell id="Ftfzk--W6nuzLrWudvyC-61" value="" style="shape=mxgraph.bpmn.shape;html=1;verticalLabelPosition=bottom;labelBackgroundColor=#ffffff;verticalAlign=top;perimeter=ellipsePerimeter;outline=end;symbol=terminate;rounded=0;shadow=0;comic=0;strokeWidth=1;fontFamily=Verdana;fontSize=12;align=center;" parent="Ftfzk--W6nuzLrWudvyC-49" vertex="1">
          <mxGeometry x="91.25" y="540" width="40" height="40" as="geometry" />
        </mxCell>
        <mxCell id="Ftfzk--W6nuzLrWudvyC-62" style="edgeStyle=orthogonalEdgeStyle;rounded=0;orthogonalLoop=1;jettySize=auto;html=1;" parent="Ftfzk--W6nuzLrWudvyC-49" source="Ftfzk--W6nuzLrWudvyC-63" target="Ftfzk--W6nuzLrWudvyC-56" edge="1">
          <mxGeometry relative="1" as="geometry" />
        </mxCell>
        <mxCell id="Ftfzk--W6nuzLrWudvyC-63" value="Validasi input" style="rounded=1;whiteSpace=wrap;html=1;shadow=0;comic=0;labelBackgroundColor=none;strokeWidth=1;fontFamily=Verdana;fontSize=12;align=center;arcSize=50;" parent="Ftfzk--W6nuzLrWudvyC-49" vertex="1">
          <mxGeometry x="67.5" y="290" width="115" height="40" as="geometry" />
        </mxCell>
        <mxCell id="Ftfzk--W6nuzLrWudvyC-64" style="edgeStyle=orthogonalEdgeStyle;rounded=0;orthogonalLoop=1;jettySize=auto;html=1;" parent="Ftfzk--W6nuzLrWudvyC-40" source="Ftfzk--W6nuzLrWudvyC-43" target="Ftfzk--W6nuzLrWudvyC-50" edge="1">
          <mxGeometry relative="1" as="geometry">
            <mxPoint x="325" y="140" as="targetPoint" />
          </mxGeometry>
        </mxCell>
        <mxCell id="Ftfzk--W6nuzLrWudvyC-65" style="edgeStyle=orthogonalEdgeStyle;rounded=0;orthogonalLoop=1;jettySize=auto;html=1;" parent="Ftfzk--W6nuzLrWudvyC-40" source="Ftfzk--W6nuzLrWudvyC-50" target="Ftfzk--W6nuzLrWudvyC-45" edge="1">
          <mxGeometry relative="1" as="geometry">
            <mxPoint x="370.0588235294117" y="155" as="sourcePoint" />
            <Array as="points">
              <mxPoint x="370" y="200" />
            </Array>
          </mxGeometry>
        </mxCell>
        <mxCell id="Ftfzk--W6nuzLrWudvyC-66" style="edgeStyle=orthogonalEdgeStyle;rounded=0;orthogonalLoop=1;jettySize=auto;html=1;" parent="Ftfzk--W6nuzLrWudvyC-40" source="Ftfzk--W6nuzLrWudvyC-45" target="Ftfzk--W6nuzLrWudvyC-51" edge="1">
          <mxGeometry relative="1" as="geometry">
            <Array as="points">
              <mxPoint x="125" y="240" />
            </Array>
          </mxGeometry>
        </mxCell>
        <mxCell id="Ftfzk--W6nuzLrWudvyC-67" style="edgeStyle=orthogonalEdgeStyle;rounded=0;orthogonalLoop=1;jettySize=auto;html=1;" parent="Ftfzk--W6nuzLrWudvyC-40" source="Ftfzk--W6nuzLrWudvyC-51" target="Ftfzk--W6nuzLrWudvyC-46" edge="1">
          <mxGeometry relative="1" as="geometry">
            <Array as="points">
              <mxPoint x="375" y="270" />
            </Array>
          </mxGeometry>
        </mxCell>
        <mxCell id="Ftfzk--W6nuzLrWudvyC-68" style="edgeStyle=orthogonalEdgeStyle;rounded=0;orthogonalLoop=1;jettySize=auto;html=1;" parent="Ftfzk--W6nuzLrWudvyC-40" source="Ftfzk--W6nuzLrWudvyC-47" target="Ftfzk--W6nuzLrWudvyC-63" edge="1">
          <mxGeometry relative="1" as="geometry" />
        </mxCell>
        <mxCell id="fp69gvyFRtcXAGcgECh_-50" value="Pencatatan Penjualan" style="swimlane;html=1;childLayout=stackLayout;startSize=20;rounded=0;shadow=0;comic=0;labelBackgroundColor=none;strokeWidth=1;fontFamily=Verdana;fontSize=14;align=center;" parent="1" vertex="1">
          <mxGeometry x="-1020" y="20" width="680" height="760" as="geometry">
            <mxRectangle x="40" y="20" width="70" height="30" as="alternateBounds" />
          </mxGeometry>
        </mxCell>
        <mxCell id="fp69gvyFRtcXAGcgECh_-51" value="Marketing" style="swimlane;html=1;startSize=20;fontSize=14;" parent="fp69gvyFRtcXAGcgECh_-50" vertex="1">
          <mxGeometry y="20" width="210" height="740" as="geometry" />
        </mxCell>
        <mxCell id="fp69gvyFRtcXAGcgECh_-52" style="edgeStyle=orthogonalEdgeStyle;rounded=0;html=1;labelBackgroundColor=none;startArrow=none;startFill=0;startSize=5;endArrow=classicThin;endFill=1;endSize=5;jettySize=auto;orthogonalLoop=1;strokeWidth=1;fontFamily=Verdana;fontSize=14;" parent="fp69gvyFRtcXAGcgECh_-51" source="fp69gvyFRtcXAGcgECh_-54" target="fp69gvyFRtcXAGcgECh_-55" edge="1">
          <mxGeometry relative="1" as="geometry">
            <mxPoint x="125" y="80" as="sourcePoint" />
            <mxPoint x="125" y="110" as="targetPoint" />
          </mxGeometry>
        </mxCell>
        <mxCell id="fp69gvyFRtcXAGcgECh_-54" value="Mulai" style="strokeWidth=2;html=1;shape=mxgraph.flowchart.terminator;whiteSpace=wrap;fontSize=14;" parent="fp69gvyFRtcXAGcgECh_-51" vertex="1">
          <mxGeometry x="57.5" y="40" width="95" height="50" as="geometry" />
        </mxCell>
        <mxCell id="fp69gvyFRtcXAGcgECh_-55" value="Data Pemesanan" style="strokeWidth=2;html=1;shape=mxgraph.flowchart.document2;whiteSpace=wrap;size=0.25;fontSize=14;" parent="fp69gvyFRtcXAGcgECh_-51" vertex="1">
          <mxGeometry x="52.5" y="130" width="105" height="70" as="geometry" />
        </mxCell>
        <mxCell id="F3RIhZDvnx_ehqNOSVsK-61" value="Bukti Penjualan" style="strokeWidth=2;html=1;shape=mxgraph.flowchart.document2;whiteSpace=wrap;size=0.25;fontSize=14;" parent="fp69gvyFRtcXAGcgECh_-51" vertex="1">
          <mxGeometry x="57.5" y="240" width="112.5" height="70" as="geometry" />
        </mxCell>
        <mxCell id="fp69gvyFRtcXAGcgECh_-56" value="Admin" style="swimlane;html=1;startSize=20;fontSize=14;" parent="fp69gvyFRtcXAGcgECh_-50" vertex="1">
          <mxGeometry x="210" y="20" width="250" height="740" as="geometry" />
        </mxCell>
        <mxCell id="F3RIhZDvnx_ehqNOSVsK-52" style="edgeStyle=orthogonalEdgeStyle;rounded=0;orthogonalLoop=1;jettySize=auto;html=1;fontSize=14;" parent="fp69gvyFRtcXAGcgECh_-56" source="F3RIhZDvnx_ehqNOSVsK-39" target="F3RIhZDvnx_ehqNOSVsK-51" edge="1">
          <mxGeometry relative="1" as="geometry" />
        </mxCell>
        <mxCell id="F3RIhZDvnx_ehqNOSVsK-39" value="Bukti Barang Keluar" style="strokeWidth=2;html=1;shape=mxgraph.flowchart.document2;whiteSpace=wrap;size=0.25;fontSize=14;" parent="fp69gvyFRtcXAGcgECh_-56" vertex="1">
          <mxGeometry x="75" y="140" width="100" height="60" as="geometry" />
        </mxCell>
        <mxCell id="F3RIhZDvnx_ehqNOSVsK-60" style="edgeStyle=orthogonalEdgeStyle;rounded=0;orthogonalLoop=1;jettySize=auto;html=1;fontSize=14;" parent="fp69gvyFRtcXAGcgECh_-56" source="F3RIhZDvnx_ehqNOSVsK-51" target="F3RIhZDvnx_ehqNOSVsK-59" edge="1">
          <mxGeometry relative="1" as="geometry" />
        </mxCell>
        <mxCell id="F3RIhZDvnx_ehqNOSVsK-51" value="Mencatat&lt;div style=&quot;font-size: 14px;&quot;&gt;Penjualan&lt;/div&gt;" style="verticalLabelPosition=middle;verticalAlign=middle;html=1;shape=trapezoid;perimeter=trapezoidPerimeter;whiteSpace=wrap;size=0.23;arcSize=10;flipV=1;labelPosition=center;align=center;fontSize=14;" parent="fp69gvyFRtcXAGcgECh_-56" vertex="1">
          <mxGeometry x="65" y="240" width="120" height="60" as="geometry" />
        </mxCell>
        <mxCell id="F3RIhZDvnx_ehqNOSVsK-68" style="edgeStyle=orthogonalEdgeStyle;rounded=0;orthogonalLoop=1;jettySize=auto;html=1;fontSize=14;" parent="fp69gvyFRtcXAGcgECh_-56" source="F3RIhZDvnx_ehqNOSVsK-59" target="F3RIhZDvnx_ehqNOSVsK-66" edge="1">
          <mxGeometry relative="1" as="geometry">
            <Array as="points">
              <mxPoint x="125" y="440" />
              <mxPoint x="30" y="440" />
              <mxPoint x="30" y="690" />
            </Array>
          </mxGeometry>
        </mxCell>
        <mxCell id="F3RIhZDvnx_ehqNOSVsK-72" style="edgeStyle=orthogonalEdgeStyle;rounded=0;orthogonalLoop=1;jettySize=auto;html=1;fontSize=14;" parent="fp69gvyFRtcXAGcgECh_-56" source="F3RIhZDvnx_ehqNOSVsK-59" target="F3RIhZDvnx_ehqNOSVsK-71" edge="1">
          <mxGeometry relative="1" as="geometry">
            <Array as="points">
              <mxPoint x="187" y="390" />
            </Array>
          </mxGeometry>
        </mxCell>
        <mxCell id="F3RIhZDvnx_ehqNOSVsK-59" value="" style="strokeWidth=2;html=1;shape=mxgraph.flowchart.document2;whiteSpace=wrap;size=0.25;fontSize=14;" parent="fp69gvyFRtcXAGcgECh_-56" vertex="1">
          <mxGeometry x="75" y="360" width="100" height="60" as="geometry" />
        </mxCell>
        <mxCell id="F3RIhZDvnx_ehqNOSVsK-67" style="edgeStyle=orthogonalEdgeStyle;rounded=0;orthogonalLoop=1;jettySize=auto;html=1;fontSize=14;" parent="fp69gvyFRtcXAGcgECh_-56" source="F3RIhZDvnx_ehqNOSVsK-30" target="F3RIhZDvnx_ehqNOSVsK-66" edge="1">
          <mxGeometry relative="1" as="geometry">
            <Array as="points">
              <mxPoint x="135" y="630" />
              <mxPoint x="135" y="630" />
            </Array>
          </mxGeometry>
        </mxCell>
        <mxCell id="F3RIhZDvnx_ehqNOSVsK-30" value="Data Kebutuhan Produksi" style="strokeWidth=2;html=1;shape=mxgraph.flowchart.document2;whiteSpace=wrap;size=0.25;fontSize=14;" parent="fp69gvyFRtcXAGcgECh_-56" vertex="1">
          <mxGeometry x="80" y="550" width="105" height="70" as="geometry" />
        </mxCell>
        <mxCell id="F3RIhZDvnx_ehqNOSVsK-66" value="Selesai" style="strokeWidth=2;html=1;shape=mxgraph.flowchart.terminator;whiteSpace=wrap;fontSize=14;" parent="fp69gvyFRtcXAGcgECh_-56" vertex="1">
          <mxGeometry x="75" y="660" width="100" height="60" as="geometry" />
        </mxCell>
        <mxCell id="F3RIhZDvnx_ehqNOSVsK-71" value="B. Penj" style="strokeWidth=2;html=1;shape=mxgraph.flowchart.merge_or_storage;whiteSpace=wrap;fontSize=14;" parent="fp69gvyFRtcXAGcgECh_-56" vertex="1">
          <mxGeometry x="140" y="460" width="95" height="60" as="geometry" />
        </mxCell>
        <mxCell id="F3RIhZDvnx_ehqNOSVsK-91" value="Bukti Penjualan" style="strokeWidth=2;html=1;shape=mxgraph.flowchart.document2;whiteSpace=wrap;size=0.25;fontSize=14;" parent="fp69gvyFRtcXAGcgECh_-56" vertex="1">
          <mxGeometry x="65" y="370" width="100" height="60" as="geometry" />
        </mxCell>
        <mxCell id="fp69gvyFRtcXAGcgECh_-64" style="edgeStyle=orthogonalEdgeStyle;rounded=0;orthogonalLoop=1;jettySize=auto;html=1;fontSize=14;" parent="fp69gvyFRtcXAGcgECh_-50" source="fp69gvyFRtcXAGcgECh_-55" target="F3RIhZDvnx_ehqNOSVsK-24" edge="1">
          <mxGeometry relative="1" as="geometry">
            <mxPoint x="325" y="90.0526315789474" as="targetPoint" />
            <mxPoint x="182.5" y="150" as="sourcePoint" />
            <Array as="points">
              <mxPoint x="220" y="180" />
              <mxPoint x="220" y="90" />
            </Array>
          </mxGeometry>
        </mxCell>
        <mxCell id="fp69gvyFRtcXAGcgECh_-66" value="Gudang" style="swimlane;whiteSpace=wrap;html=1;startSize=20;fontSize=14;" parent="fp69gvyFRtcXAGcgECh_-50" vertex="1">
          <mxGeometry x="460" y="20" width="220" height="740" as="geometry" />
        </mxCell>
        <mxCell id="F3RIhZDvnx_ehqNOSVsK-37" style="edgeStyle=orthogonalEdgeStyle;rounded=0;orthogonalLoop=1;jettySize=auto;html=1;fontSize=14;" parent="fp69gvyFRtcXAGcgECh_-66" source="F3RIhZDvnx_ehqNOSVsK-24" target="F3RIhZDvnx_ehqNOSVsK-36" edge="1">
          <mxGeometry relative="1" as="geometry" />
        </mxCell>
        <mxCell id="F3RIhZDvnx_ehqNOSVsK-24" value="Data Pemesanan" style="strokeWidth=2;html=1;shape=mxgraph.flowchart.document2;whiteSpace=wrap;size=0.25;fontSize=14;" parent="fp69gvyFRtcXAGcgECh_-66" vertex="1">
          <mxGeometry x="50" y="40" width="100" height="70" as="geometry" />
        </mxCell>
        <mxCell id="F3RIhZDvnx_ehqNOSVsK-26" value="Barang Pesanan tersedia?" style="rhombus;whiteSpace=wrap;html=1;strokeWidth=2;fontSize=14;" parent="fp69gvyFRtcXAGcgECh_-66" vertex="1">
          <mxGeometry x="42.5" y="230" width="115" height="120" as="geometry" />
        </mxCell>
        <mxCell id="F3RIhZDvnx_ehqNOSVsK-38" style="edgeStyle=orthogonalEdgeStyle;rounded=0;orthogonalLoop=1;jettySize=auto;html=1;fontSize=14;" parent="fp69gvyFRtcXAGcgECh_-66" source="F3RIhZDvnx_ehqNOSVsK-36" target="F3RIhZDvnx_ehqNOSVsK-26" edge="1">
          <mxGeometry relative="1" as="geometry" />
        </mxCell>
        <mxCell id="F3RIhZDvnx_ehqNOSVsK-36" value="Mengecek ketersediaan" style="verticalLabelPosition=middle;verticalAlign=middle;html=1;shape=trapezoid;perimeter=trapezoidPerimeter;whiteSpace=wrap;size=0.23;arcSize=10;flipV=1;labelPosition=center;align=center;fontSize=14;" parent="fp69gvyFRtcXAGcgECh_-66" vertex="1">
          <mxGeometry x="35" y="130" width="130" height="70" as="geometry" />
        </mxCell>
        <mxCell id="F3RIhZDvnx_ehqNOSVsK-32" value="Mencatat barang keluar" style="verticalLabelPosition=middle;verticalAlign=middle;html=1;shape=trapezoid;perimeter=trapezoidPerimeter;whiteSpace=wrap;size=0.23;arcSize=10;flipV=1;labelPosition=center;align=center;fontSize=14;" parent="fp69gvyFRtcXAGcgECh_-66" vertex="1">
          <mxGeometry x="40" y="400" width="130" height="70" as="geometry" />
        </mxCell>
        <mxCell id="F3RIhZDvnx_ehqNOSVsK-33" style="edgeStyle=orthogonalEdgeStyle;rounded=0;orthogonalLoop=1;jettySize=auto;html=1;fontSize=14;" parent="fp69gvyFRtcXAGcgECh_-66" source="F3RIhZDvnx_ehqNOSVsK-26" target="F3RIhZDvnx_ehqNOSVsK-32" edge="1">
          <mxGeometry relative="1" as="geometry">
            <Array as="points">
              <mxPoint x="100" y="340" />
              <mxPoint x="100" y="340" />
            </Array>
          </mxGeometry>
        </mxCell>
        <mxCell id="F3RIhZDvnx_ehqNOSVsK-65" value="Ya" style="edgeLabel;html=1;align=center;verticalAlign=middle;resizable=0;points=[];fontSize=14;" parent="F3RIhZDvnx_ehqNOSVsK-33" vertex="1" connectable="0">
          <mxGeometry x="-0.2658" y="2" relative="1" as="geometry">
            <mxPoint as="offset" />
          </mxGeometry>
        </mxCell>
        <mxCell id="F3RIhZDvnx_ehqNOSVsK-34" value="Bukti Barang Keluar" style="strokeWidth=2;html=1;shape=mxgraph.flowchart.document2;whiteSpace=wrap;size=0.25;fontSize=14;" parent="fp69gvyFRtcXAGcgECh_-66" vertex="1">
          <mxGeometry x="55" y="510" width="100" height="60" as="geometry" />
        </mxCell>
        <mxCell id="F3RIhZDvnx_ehqNOSVsK-35" style="edgeStyle=orthogonalEdgeStyle;rounded=0;orthogonalLoop=1;jettySize=auto;html=1;fontSize=14;" parent="fp69gvyFRtcXAGcgECh_-66" source="F3RIhZDvnx_ehqNOSVsK-32" target="F3RIhZDvnx_ehqNOSVsK-34" edge="1">
          <mxGeometry relative="1" as="geometry" />
        </mxCell>
        <mxCell id="F3RIhZDvnx_ehqNOSVsK-40" style="edgeStyle=orthogonalEdgeStyle;rounded=0;orthogonalLoop=1;jettySize=auto;html=1;fontSize=14;" parent="fp69gvyFRtcXAGcgECh_-50" source="F3RIhZDvnx_ehqNOSVsK-34" target="F3RIhZDvnx_ehqNOSVsK-39" edge="1">
          <mxGeometry relative="1" as="geometry">
            <Array as="points">
              <mxPoint x="480" y="550" />
              <mxPoint x="480" y="190" />
            </Array>
          </mxGeometry>
        </mxCell>
        <mxCell id="F3RIhZDvnx_ehqNOSVsK-62" style="edgeStyle=orthogonalEdgeStyle;rounded=0;orthogonalLoop=1;jettySize=auto;html=1;fontSize=14;" parent="fp69gvyFRtcXAGcgECh_-50" source="F3RIhZDvnx_ehqNOSVsK-91" target="F3RIhZDvnx_ehqNOSVsK-61" edge="1">
          <mxGeometry relative="1" as="geometry">
            <Array as="points">
              <mxPoint x="250" y="410" />
              <mxPoint x="250" y="290" />
            </Array>
          </mxGeometry>
        </mxCell>
        <mxCell id="F3RIhZDvnx_ehqNOSVsK-63" style="edgeStyle=orthogonalEdgeStyle;rounded=0;orthogonalLoop=1;jettySize=auto;html=1;fontSize=14;" parent="fp69gvyFRtcXAGcgECh_-50" source="F3RIhZDvnx_ehqNOSVsK-26" target="F3RIhZDvnx_ehqNOSVsK-30" edge="1">
          <mxGeometry relative="1" as="geometry">
            <Array as="points">
              <mxPoint x="650" y="305" />
              <mxPoint x="650" y="620" />
            </Array>
          </mxGeometry>
        </mxCell>
        <mxCell id="F3RIhZDvnx_ehqNOSVsK-64" value="Tidak" style="edgeLabel;html=1;align=center;verticalAlign=middle;resizable=0;points=[];fontSize=14;" parent="F3RIhZDvnx_ehqNOSVsK-63" vertex="1" connectable="0">
          <mxGeometry x="-0.5952" y="2" relative="1" as="geometry">
            <mxPoint as="offset" />
          </mxGeometry>
        </mxCell>
        <mxCell id="F3RIhZDvnx_ehqNOSVsK-70" style="edgeStyle=orthogonalEdgeStyle;rounded=0;orthogonalLoop=1;jettySize=auto;html=1;fontSize=14;" parent="fp69gvyFRtcXAGcgECh_-50" source="F3RIhZDvnx_ehqNOSVsK-61" target="F3RIhZDvnx_ehqNOSVsK-66" edge="1">
          <mxGeometry relative="1" as="geometry">
            <Array as="points">
              <mxPoint x="107" y="710" />
            </Array>
          </mxGeometry>
        </mxCell>
        <mxCell id="F3RIhZDvnx_ehqNOSVsK-73" value="Pencatatan Bahan Baku Produksi" style="swimlane;html=1;childLayout=stackLayout;startSize=20;rounded=0;shadow=0;comic=0;labelBackgroundColor=none;strokeWidth=1;fontFamily=Verdana;fontSize=14;align=center;" parent="1" vertex="1">
          <mxGeometry x="-1040" y="840" width="750" height="630" as="geometry">
            <mxRectangle x="40" y="20" width="70" height="30" as="alternateBounds" />
          </mxGeometry>
        </mxCell>
        <mxCell id="F3RIhZDvnx_ehqNOSVsK-74" value="Admin" style="swimlane;html=1;startSize=20;fontSize=14;" parent="F3RIhZDvnx_ehqNOSVsK-73" vertex="1">
          <mxGeometry y="20" width="250" height="610" as="geometry" />
        </mxCell>
        <mxCell id="F3RIhZDvnx_ehqNOSVsK-75" style="edgeStyle=orthogonalEdgeStyle;rounded=0;html=1;labelBackgroundColor=none;startArrow=none;startFill=0;startSize=5;endArrow=classicThin;endFill=1;endSize=5;jettySize=auto;orthogonalLoop=1;strokeWidth=1;fontFamily=Verdana;fontSize=14;" parent="F3RIhZDvnx_ehqNOSVsK-74" source="F3RIhZDvnx_ehqNOSVsK-76" target="F3RIhZDvnx_ehqNOSVsK-77" edge="1">
          <mxGeometry relative="1" as="geometry">
            <mxPoint x="125" y="80" as="sourcePoint" />
            <mxPoint x="125" y="110" as="targetPoint" />
          </mxGeometry>
        </mxCell>
        <mxCell id="F3RIhZDvnx_ehqNOSVsK-76" value="Mulai" style="strokeWidth=2;html=1;shape=mxgraph.flowchart.terminator;whiteSpace=wrap;fontSize=14;" parent="F3RIhZDvnx_ehqNOSVsK-74" vertex="1">
          <mxGeometry x="77.5" y="40" width="95" height="50" as="geometry" />
        </mxCell>
        <mxCell id="F3RIhZDvnx_ehqNOSVsK-77" value="Data Kebutuhan&lt;div style=&quot;font-size: 14px;&quot;&gt;Produksi&lt;/div&gt;" style="strokeWidth=2;html=1;shape=mxgraph.flowchart.document2;whiteSpace=wrap;size=0.25;fontSize=14;" parent="F3RIhZDvnx_ehqNOSVsK-74" vertex="1">
          <mxGeometry x="67.5" y="160" width="115" height="80" as="geometry" />
        </mxCell>
        <mxCell id="F3RIhZDvnx_ehqNOSVsK-102" value="Bukti Bahan Keluar" style="strokeWidth=2;html=1;shape=mxgraph.flowchart.document2;whiteSpace=wrap;size=0.25;fontSize=14;" parent="F3RIhZDvnx_ehqNOSVsK-74" vertex="1">
          <mxGeometry x="60" y="410" width="100" height="60" as="geometry" />
        </mxCell>
        <mxCell id="F3RIhZDvnx_ehqNOSVsK-106" value="Data Bahan Baku" style="strokeWidth=2;html=1;shape=mxgraph.flowchart.document2;whiteSpace=wrap;size=0.25;fontSize=14;" parent="F3RIhZDvnx_ehqNOSVsK-74" vertex="1">
          <mxGeometry x="75" y="295" width="105" height="70" as="geometry" />
        </mxCell>
        <mxCell id="F3RIhZDvnx_ehqNOSVsK-78" value="Produksi" style="swimlane;html=1;startSize=20;fontSize=14;" parent="F3RIhZDvnx_ehqNOSVsK-73" vertex="1">
          <mxGeometry x="250" y="20" width="250" height="610" as="geometry" />
        </mxCell>
        <mxCell id="F3RIhZDvnx_ehqNOSVsK-79" value="Data Kebutuhan&lt;div style=&quot;font-size: 14px;&quot;&gt;Produksi&lt;/div&gt;" style="strokeWidth=2;html=1;shape=mxgraph.flowchart.document2;whiteSpace=wrap;size=0.25;fontSize=14;" parent="F3RIhZDvnx_ehqNOSVsK-78" vertex="1">
          <mxGeometry x="67.5" y="40" width="115" height="80" as="geometry" />
        </mxCell>
        <mxCell id="F3RIhZDvnx_ehqNOSVsK-80" value="Selesai" style="strokeWidth=2;html=1;shape=mxgraph.flowchart.terminator;whiteSpace=wrap;fontSize=14;" parent="F3RIhZDvnx_ehqNOSVsK-78" vertex="1">
          <mxGeometry x="77.5" y="520" width="95" height="50" as="geometry" />
        </mxCell>
        <mxCell id="F3RIhZDvnx_ehqNOSVsK-82" style="edgeStyle=orthogonalEdgeStyle;rounded=0;orthogonalLoop=1;jettySize=auto;html=1;fontSize=14;" parent="F3RIhZDvnx_ehqNOSVsK-78" source="F3RIhZDvnx_ehqNOSVsK-83" target="F3RIhZDvnx_ehqNOSVsK-85" edge="1">
          <mxGeometry relative="1" as="geometry" />
        </mxCell>
        <mxCell id="F3RIhZDvnx_ehqNOSVsK-83" value="Mencatat Data Bahan Baku" style="verticalLabelPosition=middle;verticalAlign=middle;html=1;shape=trapezoid;perimeter=trapezoidPerimeter;whiteSpace=wrap;size=0.23;arcSize=10;flipV=1;labelPosition=center;align=center;fontSize=14;" parent="F3RIhZDvnx_ehqNOSVsK-78" vertex="1">
          <mxGeometry x="58.75" y="160" width="132.5" height="80" as="geometry" />
        </mxCell>
        <mxCell id="F3RIhZDvnx_ehqNOSVsK-84" value="" style="edgeStyle=orthogonalEdgeStyle;rounded=0;orthogonalLoop=1;jettySize=auto;html=1;fontSize=14;" parent="F3RIhZDvnx_ehqNOSVsK-78" source="F3RIhZDvnx_ehqNOSVsK-79" target="F3RIhZDvnx_ehqNOSVsK-83" edge="1">
          <mxGeometry relative="1" as="geometry">
            <mxPoint x="410" y="200" as="sourcePoint" />
            <Array as="points" />
            <mxPoint x="445" y="460" as="targetPoint" />
          </mxGeometry>
        </mxCell>
        <mxCell id="F3RIhZDvnx_ehqNOSVsK-85" value="Data Bahan Baku" style="strokeWidth=2;html=1;shape=mxgraph.flowchart.document2;whiteSpace=wrap;size=0.25;fontSize=14;" parent="F3RIhZDvnx_ehqNOSVsK-78" vertex="1">
          <mxGeometry x="72.5" y="295" width="105" height="70" as="geometry" />
        </mxCell>
        <mxCell id="F3RIhZDvnx_ehqNOSVsK-109" style="edgeStyle=orthogonalEdgeStyle;rounded=0;orthogonalLoop=1;jettySize=auto;html=1;fontSize=14;" parent="F3RIhZDvnx_ehqNOSVsK-78" source="F3RIhZDvnx_ehqNOSVsK-101" target="F3RIhZDvnx_ehqNOSVsK-80" edge="1">
          <mxGeometry relative="1" as="geometry" />
        </mxCell>
        <mxCell id="F3RIhZDvnx_ehqNOSVsK-101" value="Bukti Bahan Keluar" style="strokeWidth=2;html=1;shape=mxgraph.flowchart.document2;whiteSpace=wrap;size=0.25;fontSize=14;" parent="F3RIhZDvnx_ehqNOSVsK-78" vertex="1">
          <mxGeometry x="75" y="410" width="100" height="60" as="geometry" />
        </mxCell>
        <mxCell id="F3RIhZDvnx_ehqNOSVsK-86" style="edgeStyle=orthogonalEdgeStyle;rounded=0;orthogonalLoop=1;jettySize=auto;html=1;fontSize=14;" parent="F3RIhZDvnx_ehqNOSVsK-73" source="F3RIhZDvnx_ehqNOSVsK-77" target="F3RIhZDvnx_ehqNOSVsK-79" edge="1">
          <mxGeometry relative="1" as="geometry">
            <mxPoint x="317.5" y="149.9999999999999" as="targetPoint" />
            <mxPoint x="182.5" y="150" as="sourcePoint" />
            <Array as="points">
              <mxPoint x="215" y="190" />
              <mxPoint x="215" y="90" />
            </Array>
          </mxGeometry>
        </mxCell>
        <mxCell id="F3RIhZDvnx_ehqNOSVsK-87" value="Gudang" style="swimlane;html=1;startSize=20;fontSize=14;" parent="F3RIhZDvnx_ehqNOSVsK-73" vertex="1">
          <mxGeometry x="500" y="20" width="250" height="610" as="geometry" />
        </mxCell>
        <mxCell id="F3RIhZDvnx_ehqNOSVsK-93" style="edgeStyle=orthogonalEdgeStyle;rounded=0;orthogonalLoop=1;jettySize=auto;html=1;fontSize=14;" parent="F3RIhZDvnx_ehqNOSVsK-87" source="F3RIhZDvnx_ehqNOSVsK-88" target="F3RIhZDvnx_ehqNOSVsK-92" edge="1">
          <mxGeometry relative="1" as="geometry" />
        </mxCell>
        <mxCell id="F3RIhZDvnx_ehqNOSVsK-88" value="Data Bahan Baku" style="strokeWidth=2;html=1;shape=mxgraph.flowchart.document2;whiteSpace=wrap;size=0.25;fontSize=14;" parent="F3RIhZDvnx_ehqNOSVsK-87" vertex="1">
          <mxGeometry x="70" y="40" width="105" height="70" as="geometry" />
        </mxCell>
        <mxCell id="F3RIhZDvnx_ehqNOSVsK-92" value="Mencatat Data Bahan Keluar" style="verticalLabelPosition=middle;verticalAlign=middle;html=1;shape=trapezoid;perimeter=trapezoidPerimeter;whiteSpace=wrap;size=0.23;arcSize=10;flipV=1;labelPosition=center;align=center;fontSize=14;" parent="F3RIhZDvnx_ehqNOSVsK-87" vertex="1">
          <mxGeometry x="63.75" y="160" width="122.5" height="80" as="geometry" />
        </mxCell>
        <mxCell id="F3RIhZDvnx_ehqNOSVsK-94" value="Bukti Bahan Keluar" style="strokeWidth=2;html=1;shape=mxgraph.flowchart.document2;whiteSpace=wrap;size=0.25;fontSize=14;" parent="F3RIhZDvnx_ehqNOSVsK-87" vertex="1">
          <mxGeometry x="75" y="290" width="100" height="60" as="geometry" />
        </mxCell>
        <mxCell id="F3RIhZDvnx_ehqNOSVsK-95" style="edgeStyle=orthogonalEdgeStyle;rounded=0;orthogonalLoop=1;jettySize=auto;html=1;entryX=0.5;entryY=0;entryDx=0;entryDy=0;entryPerimeter=0;fontSize=14;" parent="F3RIhZDvnx_ehqNOSVsK-87" source="F3RIhZDvnx_ehqNOSVsK-92" target="F3RIhZDvnx_ehqNOSVsK-94" edge="1">
          <mxGeometry relative="1" as="geometry" />
        </mxCell>
        <mxCell id="F3RIhZDvnx_ehqNOSVsK-90" style="edgeStyle=orthogonalEdgeStyle;rounded=0;orthogonalLoop=1;jettySize=auto;html=1;fontSize=14;" parent="F3RIhZDvnx_ehqNOSVsK-73" source="F3RIhZDvnx_ehqNOSVsK-85" target="F3RIhZDvnx_ehqNOSVsK-88" edge="1">
          <mxGeometry relative="1" as="geometry">
            <Array as="points">
              <mxPoint x="465" y="350" />
              <mxPoint x="465" y="90" />
            </Array>
          </mxGeometry>
        </mxCell>
        <mxCell id="F3RIhZDvnx_ehqNOSVsK-97" style="edgeStyle=orthogonalEdgeStyle;rounded=0;orthogonalLoop=1;jettySize=auto;html=1;fontSize=14;" parent="F3RIhZDvnx_ehqNOSVsK-73" source="F3RIhZDvnx_ehqNOSVsK-94" target="F3RIhZDvnx_ehqNOSVsK-101" edge="1">
          <mxGeometry relative="1" as="geometry">
            <mxPoint x="425" y="450" as="targetPoint" />
            <Array as="points">
              <mxPoint x="625" y="450" />
            </Array>
          </mxGeometry>
        </mxCell>
        <mxCell id="F3RIhZDvnx_ehqNOSVsK-103" style="edgeStyle=orthogonalEdgeStyle;rounded=0;orthogonalLoop=1;jettySize=auto;html=1;fontSize=14;" parent="F3RIhZDvnx_ehqNOSVsK-73" source="F3RIhZDvnx_ehqNOSVsK-94" target="F3RIhZDvnx_ehqNOSVsK-102" edge="1">
          <mxGeometry relative="1" as="geometry">
            <Array as="points">
              <mxPoint x="625" y="410" />
              <mxPoint x="110" y="410" />
            </Array>
          </mxGeometry>
        </mxCell>
        <mxCell id="F3RIhZDvnx_ehqNOSVsK-107" style="edgeStyle=orthogonalEdgeStyle;rounded=0;orthogonalLoop=1;jettySize=auto;html=1;fontSize=14;" parent="F3RIhZDvnx_ehqNOSVsK-73" source="F3RIhZDvnx_ehqNOSVsK-85" target="F3RIhZDvnx_ehqNOSVsK-106" edge="1">
          <mxGeometry relative="1" as="geometry" />
        </mxCell>
        <mxCell id="F3RIhZDvnx_ehqNOSVsK-110" style="edgeStyle=orthogonalEdgeStyle;rounded=0;orthogonalLoop=1;jettySize=auto;html=1;fontSize=14;" parent="F3RIhZDvnx_ehqNOSVsK-73" source="F3RIhZDvnx_ehqNOSVsK-102" target="F3RIhZDvnx_ehqNOSVsK-80" edge="1">
          <mxGeometry relative="1" as="geometry">
            <Array as="points">
              <mxPoint x="110" y="565" />
            </Array>
          </mxGeometry>
        </mxCell>
        <mxCell id="F3RIhZDvnx_ehqNOSVsK-99" value="Bukti Bahan Keluar" style="strokeWidth=2;html=1;shape=mxgraph.flowchart.document2;whiteSpace=wrap;size=0.25;fontSize=14;" parent="1" vertex="1">
          <mxGeometry x="-455" y="1160" width="100" height="60" as="geometry" />
        </mxCell>
        <mxCell id="F3RIhZDvnx_ehqNOSVsK-108" style="edgeStyle=orthogonalEdgeStyle;rounded=0;orthogonalLoop=1;jettySize=auto;html=1;fontSize=14;" parent="1" source="F3RIhZDvnx_ehqNOSVsK-100" target="F3RIhZDvnx_ehqNOSVsK-80" edge="1">
          <mxGeometry relative="1" as="geometry">
            <Array as="points">
              <mxPoint x="-395" y="1405" />
            </Array>
          </mxGeometry>
        </mxCell>
        <mxCell id="F3RIhZDvnx_ehqNOSVsK-100" value="Bukti Bahan Keluar" style="strokeWidth=2;html=1;shape=mxgraph.flowchart.document2;whiteSpace=wrap;size=0.25;fontSize=14;" parent="1" vertex="1">
          <mxGeometry x="-445" y="1170" width="100" height="60" as="geometry" />
        </mxCell>
        <mxCell id="ug5BvsU_tukQlsbdimgg-63" value="Pencatatan Hasil Produksi" style="swimlane;html=1;childLayout=stackLayout;startSize=20;rounded=0;shadow=0;comic=0;labelBackgroundColor=none;strokeWidth=1;fontFamily=Verdana;fontSize=14;align=center;" vertex="1" parent="1">
          <mxGeometry x="-1040" y="1520" width="750" height="520" as="geometry">
            <mxRectangle x="40" y="20" width="70" height="30" as="alternateBounds" />
          </mxGeometry>
        </mxCell>
        <mxCell id="ug5BvsU_tukQlsbdimgg-64" value="Produksi" style="swimlane;html=1;startSize=20;fontSize=14;" vertex="1" parent="ug5BvsU_tukQlsbdimgg-63">
          <mxGeometry y="20" width="250" height="500" as="geometry" />
        </mxCell>
        <mxCell id="ug5BvsU_tukQlsbdimgg-65" style="edgeStyle=orthogonalEdgeStyle;rounded=0;html=1;labelBackgroundColor=none;startArrow=none;startFill=0;startSize=5;endArrow=classicThin;endFill=1;endSize=5;jettySize=auto;orthogonalLoop=1;strokeWidth=1;fontFamily=Verdana;fontSize=14;" edge="1" parent="ug5BvsU_tukQlsbdimgg-64" source="ug5BvsU_tukQlsbdimgg-66" target="ug5BvsU_tukQlsbdimgg-67">
          <mxGeometry relative="1" as="geometry">
            <mxPoint x="125" y="80" as="sourcePoint" />
            <mxPoint x="125" y="110" as="targetPoint" />
          </mxGeometry>
        </mxCell>
        <mxCell id="ug5BvsU_tukQlsbdimgg-66" value="Mulai" style="strokeWidth=2;html=1;shape=mxgraph.flowchart.terminator;whiteSpace=wrap;fontSize=14;" vertex="1" parent="ug5BvsU_tukQlsbdimgg-64">
          <mxGeometry x="77.5" y="40" width="95" height="50" as="geometry" />
        </mxCell>
        <mxCell id="ug5BvsU_tukQlsbdimgg-67" value="Data Hasil Produksi" style="strokeWidth=2;html=1;shape=mxgraph.flowchart.document2;whiteSpace=wrap;size=0.25;fontSize=14;" vertex="1" parent="ug5BvsU_tukQlsbdimgg-64">
          <mxGeometry x="67.5" y="140" width="115" height="80" as="geometry" />
        </mxCell>
        <mxCell id="ug5BvsU_tukQlsbdimgg-68" value="Bukti Barang Masuk" style="strokeWidth=2;html=1;shape=mxgraph.flowchart.document2;whiteSpace=wrap;size=0.25;fontSize=14;" vertex="1" parent="ug5BvsU_tukQlsbdimgg-64">
          <mxGeometry x="70" y="277.5" width="112.5" height="85" as="geometry" />
        </mxCell>
        <mxCell id="ug5BvsU_tukQlsbdimgg-70" value="Admin" style="swimlane;html=1;startSize=20;fontSize=14;" vertex="1" parent="ug5BvsU_tukQlsbdimgg-63">
          <mxGeometry x="250" y="20" width="250" height="500" as="geometry" />
        </mxCell>
        <mxCell id="ug5BvsU_tukQlsbdimgg-71" value="Data Hasil Produksi" style="strokeWidth=2;html=1;shape=mxgraph.flowchart.document2;whiteSpace=wrap;size=0.25;fontSize=14;" vertex="1" parent="ug5BvsU_tukQlsbdimgg-70">
          <mxGeometry x="75" y="60" width="115" height="90" as="geometry" />
        </mxCell>
        <mxCell id="ug5BvsU_tukQlsbdimgg-72" value="Selesai" style="strokeWidth=2;html=1;shape=mxgraph.flowchart.terminator;whiteSpace=wrap;fontSize=14;" vertex="1" parent="ug5BvsU_tukQlsbdimgg-70">
          <mxGeometry x="73.75" y="410" width="102.5" height="50" as="geometry" />
        </mxCell>
        <mxCell id="ug5BvsU_tukQlsbdimgg-77" style="edgeStyle=orthogonalEdgeStyle;rounded=0;orthogonalLoop=1;jettySize=auto;html=1;fontSize=14;" edge="1" parent="ug5BvsU_tukQlsbdimgg-70" source="ug5BvsU_tukQlsbdimgg-78" target="ug5BvsU_tukQlsbdimgg-72">
          <mxGeometry relative="1" as="geometry" />
        </mxCell>
        <mxCell id="ug5BvsU_tukQlsbdimgg-78" value="Bukti Barang Masuk" style="strokeWidth=2;html=1;shape=mxgraph.flowchart.document2;whiteSpace=wrap;size=0.25;fontSize=14;" vertex="1" parent="ug5BvsU_tukQlsbdimgg-70">
          <mxGeometry x="67.75" y="280" width="114.5" height="80" as="geometry" />
        </mxCell>
        <mxCell id="ug5BvsU_tukQlsbdimgg-79" style="edgeStyle=orthogonalEdgeStyle;rounded=0;orthogonalLoop=1;jettySize=auto;html=1;fontSize=14;" edge="1" parent="ug5BvsU_tukQlsbdimgg-63" source="ug5BvsU_tukQlsbdimgg-67" target="ug5BvsU_tukQlsbdimgg-71">
          <mxGeometry relative="1" as="geometry">
            <mxPoint x="317.5" y="149.9999999999999" as="targetPoint" />
            <mxPoint x="182.5" y="150" as="sourcePoint" />
            <Array as="points">
              <mxPoint x="210" y="210" />
              <mxPoint x="210" y="120" />
            </Array>
          </mxGeometry>
        </mxCell>
        <mxCell id="ug5BvsU_tukQlsbdimgg-80" value="Gudang" style="swimlane;html=1;startSize=20;fontSize=14;" vertex="1" parent="ug5BvsU_tukQlsbdimgg-63">
          <mxGeometry x="500" y="20" width="250" height="500" as="geometry" />
        </mxCell>
        <mxCell id="ug5BvsU_tukQlsbdimgg-81" style="edgeStyle=orthogonalEdgeStyle;rounded=0;orthogonalLoop=1;jettySize=auto;html=1;fontSize=14;" edge="1" parent="ug5BvsU_tukQlsbdimgg-80" source="ug5BvsU_tukQlsbdimgg-82" target="ug5BvsU_tukQlsbdimgg-83">
          <mxGeometry relative="1" as="geometry" />
        </mxCell>
        <mxCell id="ug5BvsU_tukQlsbdimgg-82" value="Data Hasil Produksi" style="strokeWidth=2;html=1;shape=mxgraph.flowchart.document2;whiteSpace=wrap;size=0.25;fontSize=14;" vertex="1" parent="ug5BvsU_tukQlsbdimgg-80">
          <mxGeometry x="67.5" y="40" width="115" height="70" as="geometry" />
        </mxCell>
        <mxCell id="ug5BvsU_tukQlsbdimgg-83" value="Mencatat Data Barang Masuk" style="verticalLabelPosition=middle;verticalAlign=middle;html=1;shape=trapezoid;perimeter=trapezoidPerimeter;whiteSpace=wrap;size=0.23;arcSize=10;flipV=1;labelPosition=center;align=center;fontSize=14;" vertex="1" parent="ug5BvsU_tukQlsbdimgg-80">
          <mxGeometry x="58.75" y="160" width="132.5" height="80" as="geometry" />
        </mxCell>
        <mxCell id="ug5BvsU_tukQlsbdimgg-84" value="Bukti Bahan Keluar" style="strokeWidth=2;html=1;shape=mxgraph.flowchart.document2;whiteSpace=wrap;size=0.25;fontSize=14;" vertex="1" parent="ug5BvsU_tukQlsbdimgg-80">
          <mxGeometry x="75" y="290" width="100" height="60" as="geometry" />
        </mxCell>
        <mxCell id="ug5BvsU_tukQlsbdimgg-85" style="edgeStyle=orthogonalEdgeStyle;rounded=0;orthogonalLoop=1;jettySize=auto;html=1;entryX=0.5;entryY=0;entryDx=0;entryDy=0;entryPerimeter=0;fontSize=14;" edge="1" parent="ug5BvsU_tukQlsbdimgg-80" source="ug5BvsU_tukQlsbdimgg-83" target="ug5BvsU_tukQlsbdimgg-84">
          <mxGeometry relative="1" as="geometry" />
        </mxCell>
        <mxCell id="ug5BvsU_tukQlsbdimgg-87" style="edgeStyle=orthogonalEdgeStyle;rounded=0;orthogonalLoop=1;jettySize=auto;html=1;fontSize=14;" edge="1" parent="ug5BvsU_tukQlsbdimgg-63" source="ug5BvsU_tukQlsbdimgg-84" target="ug5BvsU_tukQlsbdimgg-78">
          <mxGeometry relative="1" as="geometry">
            <mxPoint x="425" y="450" as="targetPoint" />
            <Array as="points">
              <mxPoint x="500" y="340" />
              <mxPoint x="500" y="340" />
            </Array>
          </mxGeometry>
        </mxCell>
        <mxCell id="ug5BvsU_tukQlsbdimgg-88" style="edgeStyle=orthogonalEdgeStyle;rounded=0;orthogonalLoop=1;jettySize=auto;html=1;fontSize=14;" edge="1" parent="ug5BvsU_tukQlsbdimgg-63" source="ug5BvsU_tukQlsbdimgg-84" target="ug5BvsU_tukQlsbdimgg-68">
          <mxGeometry relative="1" as="geometry">
            <Array as="points">
              <mxPoint x="530" y="340" />
              <mxPoint x="530" y="260" />
              <mxPoint x="120" y="260" />
            </Array>
          </mxGeometry>
        </mxCell>
        <mxCell id="ug5BvsU_tukQlsbdimgg-90" style="edgeStyle=orthogonalEdgeStyle;rounded=0;orthogonalLoop=1;jettySize=auto;html=1;fontSize=14;" edge="1" parent="ug5BvsU_tukQlsbdimgg-63" source="ug5BvsU_tukQlsbdimgg-68" target="ug5BvsU_tukQlsbdimgg-72">
          <mxGeometry relative="1" as="geometry">
            <Array as="points">
              <mxPoint x="120" y="460" />
            </Array>
          </mxGeometry>
        </mxCell>
        <mxCell id="ug5BvsU_tukQlsbdimgg-94" style="edgeStyle=orthogonalEdgeStyle;rounded=0;orthogonalLoop=1;jettySize=auto;html=1;fontSize=14;" edge="1" parent="ug5BvsU_tukQlsbdimgg-63" source="ug5BvsU_tukQlsbdimgg-67" target="ug5BvsU_tukQlsbdimgg-82">
          <mxGeometry relative="1" as="geometry">
            <Array as="points">
              <mxPoint x="210" y="210" />
              <mxPoint x="210" y="60" />
            </Array>
          </mxGeometry>
        </mxCell>
        <mxCell id="ug5BvsU_tukQlsbdimgg-91" value="Bukti Bahan Keluar" style="strokeWidth=2;html=1;shape=mxgraph.flowchart.document2;whiteSpace=wrap;size=0.25;fontSize=14;" vertex="1" parent="1">
          <mxGeometry x="-455" y="1840" width="100" height="60" as="geometry" />
        </mxCell>
        <mxCell id="ug5BvsU_tukQlsbdimgg-92" style="edgeStyle=orthogonalEdgeStyle;rounded=0;orthogonalLoop=1;jettySize=auto;html=1;fontSize=14;" edge="1" parent="1" source="ug5BvsU_tukQlsbdimgg-93" target="ug5BvsU_tukQlsbdimgg-72">
          <mxGeometry relative="1" as="geometry">
            <Array as="points">
              <mxPoint x="-400" y="1975" />
            </Array>
          </mxGeometry>
        </mxCell>
        <mxCell id="ug5BvsU_tukQlsbdimgg-93" value="Bukti Barang Masuk" style="strokeWidth=2;html=1;shape=mxgraph.flowchart.document2;whiteSpace=wrap;size=0.25;fontSize=14;" vertex="1" parent="1">
          <mxGeometry x="-445" y="1850" width="100" height="60" as="geometry" />
        </mxCell>
      </root>
    </mxGraphModel>
  </diagram>
</mxfile>
